<svg width="20" height="16" viewBox="0 0 20 16" fill="none" xmlns="http://www.w3.org/2000/svg">
<g clip-path="url(#clip0_5611_731)">
<path d="M0 2.66667C0 1.19391 1.11929 0 2.5 0H17.5C18.8807 0 20 1.19391 20 2.66667V13.3333C20 14.8061 18.8807 16 17.5 16H2.5C1.11929 16 0 14.8061 0 13.3333V2.66667Z" fill="#0039A4"/>
<path d="M0 3.05749V5.24141H3.25427L0 7.51568V7.86208C0 8.09118 0.000102113 8.27913 0.000112366 8.29742H1.12284L4.91381 5.64813V8.29742H6.96124V5.64813L10.7522 8.29742H11.875L11.875 7.51563L8.62078 5.24141H11.875V3.05749H8.62073L11.875 0.783267L11.875 0L10.7543 8.22544e-06L6.96124 2.65077V8.22544e-06H4.91381V2.65077L1.40543 0.268504C1.02517 0.466343 0.698963 0.764053 0.456812 1.12962L3.25427 3.05749H0Z" fill="#F5F5F5"/>
<path d="M0 3.49445V4.80476H5.32327V8.29742H6.55173V4.80476H11.875V3.49445H6.55173V0.00016276H5.32327V3.49445H0Z" fill="#F90407"/>
<path d="M0.691452 0.825604C0.793978 0.711044 0.905974 0.606211 1.0261 0.512533L1.19415 0.627773L4.69671 3.02056H3.94459L0.691452 0.825604Z" fill="#F90407"/>
<path d="M11.875 0.0104167V0.255943L7.77566 3.09434H7.02354L11.4473 0.0104167H11.875Z" fill="#F90407"/>
<path d="M0.311863 8.29742H0.000112366L0 8.02545L3.94451 5.24137H4.69662L0.311863 8.29742Z" fill="#F90407"/>
<path d="M11.5839 8.29742H11.875L11.875 7.98618L7.92746 5.27035H7.15401L11.5839 8.29742Z" fill="#F90407"/>
<path d="M4.30445 9.05168L4.62485 10.1143L5.60345 9.71894L5.02438 10.6487L5.92428 11.2183L4.88179 11.315L5.02534 12.4207L4.30445 11.6116L3.58356 12.4207L3.72712 11.315L2.68463 11.2183L3.58453 10.6487L3.00546 9.71894L3.98406 10.1143L4.30445 9.05168Z" fill="white"/>
<path d="M15.381 10.9646L15.5335 11.4706L15.9995 11.2823L15.7238 11.725L16.1523 11.9963L15.6559 12.0423L15.7242 12.5688L15.381 12.1836L15.0377 12.5688L15.106 12.0423L14.6096 11.9963L15.0381 11.725L14.7624 11.2823L15.2284 11.4706L15.381 10.9646Z" fill="white"/>
<path d="M12.6118 6.28782L12.7644 6.79381L13.2304 6.60556L12.9546 7.04828L13.3832 7.31953L12.8868 7.3656L12.9551 7.89209L12.6118 7.50682L12.2685 7.89209L12.3369 7.3656L11.8405 7.31953L12.269 7.04828L11.9933 6.60556L12.4593 6.79381L12.6118 6.28782Z" fill="white"/>
<path d="M15.381 3.08794L15.5335 3.59393L15.9995 3.40569L15.7238 3.84841L16.1523 4.11966L15.6559 4.16573L15.7242 4.69222L15.381 4.30695L15.0377 4.69222L15.106 4.16573L14.6096 4.11966L15.0381 3.84841L14.7624 3.40569L15.2284 3.59393L15.381 3.08794Z" fill="white"/>
<path d="M17.8424 5.50016L17.995 6.00616L18.461 5.81791L18.1852 6.26063L18.6138 6.53188L18.1173 6.57795L18.1857 7.10444L17.8424 6.71917L17.4991 7.10444L17.5675 6.57795L17.0711 6.53188L17.4996 6.26063L17.2238 5.81791L17.6898 6.00616L17.8424 5.50016Z" fill="white"/>
<path d="M16.4886 7.87015L16.6092 8.18543L16.9276 8.21032L16.6837 8.43005L16.7599 8.76071L16.4886 8.58124L16.2174 8.76071L16.2936 8.43005L16.0497 8.21032L16.3681 8.18543L16.4886 7.87015Z" fill="white"/>
</g>
<defs>
<clipPath id="clip0_5611_731">
<rect width="20" height="16" rx="4" fill="white"/>
</clipPath>
</defs>
</svg>
