<svg width="17" height="18" viewBox="0 0 17 18" fill="none" xmlns="http://www.w3.org/2000/svg">
<path d="M16.09 8.5008L8.95579 15.635C8.0818 16.509 6.89641 17 5.6604 17C4.42438 17 3.23899 16.509 2.365 15.635C1.491 14.761 1 13.5756 1 12.3396C1 11.1036 1.491 9.9182 2.365 9.04421L9.4992 1.91C10.0819 1.32734 10.8721 1 11.6961 1C12.5201 1 13.3104 1.32734 13.8931 1.91C14.4757 2.49266 14.8031 3.28292 14.8031 4.10693C14.8031 4.93094 14.4757 5.7212 13.8931 6.30386L6.7511 13.4381C6.45977 13.7294 6.06464 13.8931 5.65263 13.8931C5.24063 13.8931 4.8455 13.7294 4.55417 13.4381C4.26284 13.1467 4.09917 12.7516 4.09917 12.3396C4.09917 11.9276 4.26284 11.5325 4.55417 11.2411L11.145 4.6581" stroke="#131214" stroke-width="1.5" stroke-linecap="round" stroke-linejoin="round"/>
</svg>
