<svg width="21" height="14" viewBox="0 0 21 14" fill="none" xmlns="http://www.w3.org/2000/svg">
<path d="M1.66193 13.0909H0L4.80682 0H6.44318L11.25 13.0909H9.58807L5.67614 2.07102H5.57386L1.66193 13.0909ZM2.27557 7.97727H8.97443V9.38352H2.27557V7.97727Z" fill="#898D8F"/>
<path d="M15.9737 13.321C15.3516 13.321 14.7869 13.2038 14.2798 12.9695C13.7727 12.7308 13.37 12.3878 13.0717 11.9403C12.7734 11.4886 12.6243 10.9432 12.6243 10.304C12.6243 9.74148 12.7351 9.28551 12.9567 8.93608C13.1783 8.58239 13.4744 8.3054 13.8452 8.10511C14.2159 7.90483 14.625 7.75568 15.0724 7.65767C15.5241 7.5554 15.978 7.47443 16.4339 7.41477C17.0305 7.33807 17.5142 7.28054 17.8849 7.24219C18.2599 7.19957 18.5327 7.12926 18.7031 7.03125C18.8778 6.93324 18.9652 6.76278 18.9652 6.51989V6.46875C18.9652 5.83807 18.7926 5.34801 18.4474 4.99858C18.1065 4.64915 17.5888 4.47443 16.8942 4.47443C16.174 4.47443 15.6094 4.6321 15.2003 4.94744C14.7912 5.26278 14.5036 5.59943 14.3374 5.95739L12.9055 5.44602C13.1612 4.84943 13.5021 4.38494 13.9283 4.05256C14.3587 3.71591 14.8274 3.48153 15.3345 3.34943C15.8459 3.21307 16.3487 3.14489 16.843 3.14489C17.1584 3.14489 17.5206 3.18324 17.9297 3.25994C18.343 3.33239 18.7415 3.48366 19.125 3.71378C19.5128 3.94389 19.8345 4.29119 20.0902 4.75568C20.3459 5.22017 20.4737 5.84233 20.4737 6.62216V13.0909H18.9652V11.7614H18.8885C18.7862 11.9744 18.6158 12.2024 18.3771 12.4453C18.1385 12.6882 17.821 12.8949 17.4247 13.0653C17.0284 13.2358 16.5447 13.321 15.9737 13.321ZM16.2038 11.9659C16.8004 11.9659 17.3033 11.8487 17.7124 11.6143C18.1257 11.38 18.4368 11.0774 18.6456 10.7067C18.8587 10.3359 18.9652 9.94602 18.9652 9.53693V8.15625C18.9013 8.23295 18.7607 8.30327 18.5433 8.36719C18.3303 8.42685 18.0831 8.48011 17.8018 8.52699C17.5249 8.5696 17.2543 8.60795 16.9901 8.64205C16.7301 8.67188 16.5192 8.69744 16.3572 8.71875C15.9652 8.76989 15.5987 8.85298 15.2578 8.96804C14.9212 9.07884 14.6484 9.24716 14.4396 9.47301C14.2351 9.6946 14.1328 9.99716 14.1328 10.3807C14.1328 10.9048 14.3267 11.3011 14.7145 11.5696C15.1065 11.8338 15.603 11.9659 16.2038 11.9659Z" fill="#898D8F"/>
</svg>
