<svg width="24" height="24" viewBox="0 0 24 24" fill="none" xmlns="http://www.w3.org/2000/svg">
<path d="M16.8699 12C16.8699 11.5858 16.5341 11.25 16.1199 11.25C15.7057 11.25 15.3699 11.5858 15.3699 12L16.8699 12ZM11.8532 16.2667L11.8532 17.0167L11.8532 16.2667ZM8.33655 12C8.33655 11.5858 8.00076 11.25 7.58655 11.25C7.17233 11.25 6.83655 11.5858 6.83655 12L8.33655 12ZM22.4981 7.43772L23.2165 7.22221L23.2165 7.22221L22.4981 7.43772ZM1.33351 8.58711L2.08351 8.58711V8.58711H1.33351ZM1.5022 7.43773L0.783834 7.22222L1.5022 7.43773ZM1.3335 18.6667L2.0835 18.6667L2.0835 18.6667L1.3335 18.6667ZM21.522 4.18397L20.8036 4.39949L20.8036 4.39949L21.522 4.18397ZM2.47832 4.18399L3.19669 4.3995L2.47832 4.18399ZM15.3699 12C15.3699 12.9327 14.9994 13.8272 14.3399 14.4867L15.4005 15.5474C16.3413 14.6066 16.8699 13.3305 16.8699 12L15.3699 12ZM14.3399 14.4867C13.6804 15.1462 12.7859 15.5167 11.8532 15.5167L11.8532 17.0167C13.1837 17.0167 14.4597 16.4882 15.4005 15.5474L14.3399 14.4867ZM11.8532 15.5167C10.9205 15.5167 10.0261 15.1462 9.36655 14.4867L8.30589 15.5474C9.2467 16.4882 10.5227 17.0167 11.8532 17.0167L11.8532 15.5167ZM9.36655 14.4867C8.70705 13.8272 8.33655 12.9327 8.33655 12L6.83655 12C6.83655 13.3305 7.36509 14.6066 8.30589 15.5474L9.36655 14.4867ZM1.3335 8.75004H22.3729V7.25004H1.3335V8.75004ZM2.22057 7.65324L3.19669 4.3995L1.75995 3.96848L0.783834 7.22222L2.22057 7.65324ZM20.8036 4.39949L21.7798 7.65323L23.2165 7.22221L22.2404 3.96846L20.8036 4.39949ZM21.7798 7.65323C21.8707 7.9562 21.9168 8.27081 21.9168 8.58712H23.4168C23.4168 8.12482 23.3494 7.66501 23.2165 7.22221L21.7798 7.65323ZM2.08351 8.58711C2.08351 8.27081 2.12969 7.9562 2.22057 7.65324L0.783834 7.22222C0.650997 7.66501 0.583512 8.12482 0.583512 8.58711H2.08351ZM0.583502 18.6667C0.583498 21.2901 2.71014 23.4167 5.3335 23.4167V21.9167C3.53857 21.9167 2.0835 20.4616 2.0835 18.6667L0.583502 18.6667ZM21.9168 18.6667C21.9168 20.4616 20.4618 21.9167 18.6668 21.9167V23.4167C21.2902 23.4167 23.4168 21.2901 23.4168 18.6667H21.9168ZM17.6907 2.08337C19.1259 2.08337 20.3912 3.02479 20.8036 4.39949L22.2404 3.96846C21.6376 1.95929 19.7883 0.583374 17.6907 0.583374V2.08337ZM6.30963 0.583374C4.21198 0.583374 2.3627 1.9593 1.75995 3.96848L3.19669 4.3995C3.6091 3.0248 4.8744 2.08337 6.30963 2.08337V0.583374ZM21.9168 8.58712V18.6667H23.4168V8.58712H21.9168ZM2.0835 18.6667L2.08351 8.58711L0.583512 8.58711L0.583502 18.6667L2.0835 18.6667ZM6.30963 2.08337H17.6907V0.583374H6.30963V2.08337ZM18.6668 21.9167H5.3335V23.4167H18.6668V21.9167Z" fill="#131214"/>
</svg>
