<svg width="17" height="18" viewBox="0 0 17 18" fill="none" xmlns="http://www.w3.org/2000/svg">
<path d="M7.77498 16.943C7.77498 17.3573 8.11077 17.693 8.52498 17.693C8.9392 17.693 9.27498 17.3573 9.27498 16.943H7.77498ZM9.27498 9C9.27498 8.58579 8.9392 8.25 8.52498 8.25C8.11077 8.25 7.77498 8.58579 7.77498 9H9.27498ZM2.20443 4.58417C1.84361 4.38076 1.3862 4.50836 1.18278 4.86919C0.979366 5.23001 1.10697 5.68742 1.4678 5.89084L2.20443 4.58417ZM8.525 9.00838L8.15668 9.66171C8.37938 9.78726 8.65069 9.79072 8.87652 9.6709L8.525 9.00838ZM15.9834 5.90002C16.3493 5.70588 16.4886 5.25188 16.2944 4.88598C16.1003 4.52008 15.6463 4.38085 15.2804 4.57499L15.9834 5.90002ZM9.74315 16.6843L10.1074 17.34L9.74315 16.6843ZM7.30684 16.6843L7.67107 16.0287L7.30684 16.6843ZM1 11.7046L1.75 11.7046V11.7046L1 11.7046ZM2.29018 13.8973L1.92594 14.5529H1.92594L2.29018 13.8973ZM14.7598 13.8973L14.3956 13.2417L14.7598 13.8973ZM7.30684 1.31566L6.94261 0.660037L7.30684 1.31566ZM9.74314 1.31565L9.37891 1.97127L9.74314 1.31565ZM14.7598 4.10269L15.124 3.44707L14.7598 4.10269ZM1.00001 6.29536L1.75001 6.29536V6.29536H1.00001ZM2.29018 4.10269L1.92595 3.44707L2.29018 4.10269ZM9.27498 16.943V9H7.77498V16.943H9.27498ZM1.4678 5.89084L8.15668 9.66171L8.89332 8.35505L2.20443 4.58417L1.4678 5.89084ZM8.87652 9.6709L15.9834 5.90002L15.2804 4.57499L8.17347 8.34586L8.87652 9.6709ZM2.65442 4.7583L7.67107 1.97127L6.94261 0.660037L1.92595 3.44707L2.65442 4.7583ZM9.37891 1.97127L14.3956 4.7583L15.124 3.44707L10.1074 0.660037L9.37891 1.97127ZM14.3956 13.2417L9.37891 16.0287L10.1074 17.34L15.124 14.5529L14.3956 13.2417ZM7.67107 16.0287L2.65441 13.2417L1.92594 14.5529L6.94261 17.34L7.67107 16.0287ZM9.37891 16.0287C8.84786 16.3238 8.20213 16.3238 7.67107 16.0287L6.94261 17.34C7.9267 17.8867 9.12329 17.8867 10.1074 17.34L9.37891 16.0287ZM0.25 11.7046C0.249997 12.888 0.891535 13.9783 1.92594 14.5529L2.65441 13.2417C2.0962 12.9316 1.75 12.3432 1.75 11.7046L0.25 11.7046ZM15.3 11.7046C15.3 12.3432 14.9538 12.9316 14.3956 13.2417L15.124 14.5529C16.1584 13.9783 16.8 12.888 16.8 11.7046H15.3ZM7.67107 1.97127C8.20213 1.67624 8.84786 1.67624 9.37891 1.97127L10.1074 0.660037C9.12329 0.113321 7.9267 0.113321 6.94261 0.660037L7.67107 1.97127ZM16.8 6.29536C16.8 5.11204 16.1584 4.02174 15.124 3.44707L14.3956 4.7583C14.9538 5.06842 15.3 5.65679 15.3 6.29536H16.8ZM1.75001 6.29536C1.75001 5.65679 2.09621 5.06842 2.65442 4.7583L1.92595 3.44707C0.891545 4.02174 0.250006 5.11204 0.250006 6.29536H1.75001ZM15.3 6.29536V11.7046H16.8V6.29536H15.3ZM1.75 11.7046L1.75001 6.29536L0.250006 6.29536L0.25 11.7046L1.75 11.7046Z" fill="#131214"/>
</svg>
