<svg width="10" height="12" viewBox="0 0 10 12" fill="none" xmlns="http://www.w3.org/2000/svg">
<path d="M1.00001 9.99984L1.50001 9.99984L1.50001 9.99984L1.00001 9.99984ZM8.99999 11.3332V11.8332C9.20222 11.8332 9.38454 11.7113 9.46193 11.5245C9.53932 11.3377 9.49654 11.1226 9.35354 10.9796L8.99999 11.3332ZM9.50001 4.53639C9.50001 4.26025 9.27615 4.03639 9.00001 4.03639C8.72387 4.03639 8.50001 4.26025 8.50001 4.53639L9.50001 4.53639ZM1 2.66651L1.5 2.66651L1.5 2.66651L1 2.66651ZM1.50001 9.99984C1.50001 9.83829 1.54879 9.72371 1.71966 9.55284L1.01255 8.84573C0.714583 9.1437 0.500008 9.49834 0.500008 9.99984H1.50001ZM1.71966 9.55284C1.82025 9.45225 2.00738 9.2477 2.46432 9.05609C2.93432 8.85899 3.71514 8.6665 4.99999 8.6665V7.6665C3.61817 7.6665 2.69926 7.8732 2.0776 8.13389C1.44287 8.40006 1.14639 8.7119 1.01255 8.84573L1.71966 9.55284ZM8.99999 10.8332H2.24999V11.8332H8.99999V10.8332ZM2.24999 10.8332C2.05108 10.8332 1.86031 10.7542 1.71966 10.6135L1.01255 11.3206C1.34074 11.6488 1.78586 11.8332 2.24999 11.8332V10.8332ZM1.71966 10.6135C1.60018 10.494 1.50001 10.232 1.50001 9.99984H0.500008C0.500008 10.4307 0.663189 10.9712 1.01255 11.3206L1.71966 10.6135ZM4.99999 8.6665C6.30188 8.6665 7.27103 8.78854 7.90785 8.90794C8.22633 8.96765 8.4619 9.02675 8.61462 9.0697C8.69098 9.09118 8.74664 9.10862 8.7816 9.1201C8.79909 9.12583 8.8114 9.13008 8.81853 9.13259C8.8221 9.13384 8.82438 9.13466 8.82536 9.13502C8.82585 9.1352 8.82602 9.13526 8.82586 9.1352C8.82579 9.13517 8.82563 9.13512 8.82539 9.13503C8.82527 9.13498 8.82513 9.13493 8.82497 9.13487C8.82489 9.13484 8.82475 9.13479 8.82471 9.13477C8.82457 9.13472 8.82443 9.13467 8.99999 8.6665C9.17555 8.19834 9.1754 8.19828 9.17524 8.19822C9.17518 8.1982 9.17501 8.19814 9.17489 8.19809C9.17465 8.198 9.17439 8.1979 9.1741 8.1978C9.17354 8.19759 9.17289 8.19735 9.17216 8.19708C9.17071 8.19654 9.16892 8.19589 9.16681 8.19512C9.16258 8.19358 9.15704 8.1916 9.1502 8.18919C9.1365 8.18437 9.11756 8.17788 9.09337 8.16994C9.04501 8.15407 8.97567 8.13245 8.88536 8.10705C8.70474 8.05625 8.44032 7.99035 8.09213 7.92507C7.39562 7.79447 6.36477 7.6665 4.99999 7.6665V8.6665ZM7.83332 9.99984C7.83332 10.4835 8.06736 10.9189 8.25063 11.1939C8.34769 11.3394 8.44401 11.4598 8.51619 11.544C8.55251 11.5864 8.5833 11.6203 8.60582 11.6444C8.61709 11.6565 8.62633 11.6661 8.6332 11.6732C8.63664 11.6768 8.63949 11.6797 8.64171 11.682C8.64282 11.6831 8.64377 11.684 8.64456 11.6848C8.64495 11.6852 8.64531 11.6856 8.64562 11.6859C8.64578 11.6861 8.64592 11.6862 8.64606 11.6863C8.64613 11.6864 8.64622 11.6865 8.64626 11.6865C8.64635 11.6866 8.64644 11.6867 8.99999 11.3332C9.35354 10.9796 9.35363 10.9797 9.35371 10.9798C9.35373 10.9798 9.35381 10.9799 9.35386 10.9799C9.35395 10.98 9.35404 10.9801 9.35412 10.9802C9.35427 10.9803 9.35438 10.9805 9.35445 10.9805C9.3546 10.9807 9.3546 10.9807 9.35445 10.9805C9.35414 10.9802 9.35325 10.9793 9.3518 10.9778C9.34891 10.9748 9.34383 10.9695 9.33687 10.9621C9.32293 10.9471 9.30164 10.9237 9.27545 10.8932C9.22263 10.8316 9.15229 10.7436 9.08268 10.6392C8.93262 10.4141 8.83332 10.1829 8.83332 9.99984H7.83332ZM8.49999 8.66661C8.49996 8.55135 8.54126 8.4691 8.54693 8.45722C8.55961 8.43069 8.57151 8.41248 8.57513 8.40698C8.58296 8.39513 8.58715 8.39046 8.58006 8.39938C8.56622 8.41678 8.54762 8.43865 8.51122 8.48246C8.44557 8.56149 8.35048 8.67825 8.25389 8.81956C8.07065 9.08762 7.83332 9.51252 7.83332 9.99984H8.83332C8.83332 9.82049 8.92934 9.60346 9.07944 9.38389C9.1495 9.28139 9.22108 9.1929 9.28043 9.12146C9.30654 9.09003 9.34002 9.05036 9.36263 9.02194C9.37377 9.00794 9.39229 8.98429 9.40987 8.95763C9.41838 8.94473 9.43402 8.92016 9.44922 8.88836C9.45742 8.8712 9.50002 8.78474 9.49999 8.66639L8.49999 8.66661ZM9.49999 8.66651C9.49999 7.87026 9.5 6.81731 9.5 5.99661C9.5 5.57068 9.50001 5.22657 9.50001 4.95491C9.50001 4.95287 9.50001 4.95083 9.50001 4.94881C9.50001 4.94678 9.50001 4.94476 9.50001 4.94274C9.50001 4.94073 9.50001 4.93872 9.50001 4.93672C9.50001 4.93471 9.50001 4.93272 9.50001 4.93073C9.50001 4.91103 9.50001 4.92665 9.50001 4.90717C9.50001 4.88842 9.50001 4.90277 9.50001 4.88423C9.50001 4.88235 9.50001 4.88047 9.50001 4.8786C9.50001 4.87673 9.50001 4.87486 9.50001 4.873C9.50001 4.87115 9.50001 4.86929 9.50001 4.86745C9.50001 4.86561 9.50001 4.86377 9.50001 4.86194C9.50001 4.80243 9.50001 4.83527 9.50001 4.77933C9.50001 4.75358 9.50001 4.72968 9.50001 4.70771C9.50001 4.70055 9.50001 4.65089 9.50001 4.64771C9.50001 4.61172 9.50001 4.58389 9.50001 4.56506C9.50001 4.56349 9.50001 4.55306 9.50001 4.55264C9.50001 4.54586 9.50001 4.54928 9.50001 4.54366C9.50001 4.54336 9.50001 4.54307 9.50001 4.54279C9.50001 4.54251 9.50001 4.54223 9.50001 4.54197C9.50001 4.54171 9.50001 4.54145 9.50001 4.54121C9.50001 4.54096 9.50001 4.54073 9.50001 4.5405C9.50001 4.53959 9.50001 4.53883 9.50001 4.53823C9.50001 4.53807 9.50001 4.53793 9.50001 4.5378C9.50001 4.53766 9.50001 4.53754 9.50001 4.53743C9.50001 4.53731 9.50001 4.53721 9.50001 4.53711C9.50001 4.53702 9.50001 4.53693 9.50001 4.53685C9.50001 4.53653 9.50001 4.53675 9.50001 4.53651C9.50001 4.53647 9.50001 4.53644 9.50001 4.53642C9.50001 4.5364 9.50001 4.53639 9.00001 4.53639C8.50001 4.53639 8.50001 4.5364 8.50001 4.53642C8.50001 4.53644 8.50001 4.53647 8.50001 4.53651C8.50001 4.53675 8.50001 4.53653 8.50001 4.53685C8.50001 4.53695 8.50001 4.53725 8.50001 4.53742C8.50001 4.53754 8.50001 4.53766 8.50001 4.53779C8.50001 4.53793 8.50001 4.53807 8.50001 4.53822C8.50001 4.54271 8.50001 4.53798 8.50001 4.54366C8.50001 4.54927 8.50001 4.54586 8.50001 4.55263C8.50001 4.55306 8.50001 4.56349 8.50001 4.56505C8.50001 4.58388 8.50001 4.61171 8.50001 4.6477C8.50001 4.65087 8.50001 4.70055 8.50001 4.7077C8.50001 4.72967 8.50001 4.75359 8.50001 4.77932C8.50001 4.83527 8.50001 4.80242 8.50001 4.86193C8.50001 4.92539 8.50001 4.8881 8.50001 4.9549C8.50001 5.22657 8.5 5.57067 8.5 5.9966C8.5 6.82639 8.49999 7.86118 8.49999 8.6665L9.49999 8.66651ZM8.49999 2.6665V4.6665H9.49999V2.6665H8.49999ZM9.49999 2.6665C9.49999 1.28579 8.3807 0.166504 6.99999 0.166504V1.1665C7.82842 1.1665 8.49999 1.83808 8.49999 2.6665H9.49999ZM1.5 2.66651C1.5 1.83808 2.17157 1.1665 3 1.1665V0.166504C1.61929 0.166504 0.499998 1.28579 0.5 2.66651L1.5 2.66651ZM1.50001 9.99984L1.5 2.66651L0.5 2.66651L0.500008 9.99984L1.50001 9.99984ZM3 1.1665H6.99999V0.166504H3V1.1665Z" fill="#6E7375"/>
</svg>
