<svg width="14" height="18" viewBox="0 0 14 18" fill="none" xmlns="http://www.w3.org/2000/svg">
<path d="M1.00001 15H1.75001V15L1.00001 15ZM13 17V17.75C13.3033 17.75 13.5768 17.5673 13.6929 17.287C13.809 17.0068 13.7448 16.6842 13.5303 16.4697L13 17ZM13.75 6.80484C13.75 6.39062 13.4142 6.05483 13 6.05483C12.5858 6.05483 12.25 6.39062 12.25 6.80483L13.75 6.80484ZM1 4L1.75 4V4L1 4ZM1.75001 15C1.75001 14.7577 1.82319 14.5858 2.07949 14.3295L1.01883 13.2688C0.571874 13.7158 0.250012 14.2478 0.250012 15H1.75001ZM2.07949 14.3295C2.23037 14.1786 2.51106 13.8718 3.19648 13.5844C3.90148 13.2887 5.07272 13 6.99999 13V11.5C4.92726 11.5 3.54889 11.81 2.6164 12.2011C1.6643 12.6003 1.21958 13.0681 1.01883 13.2688L2.07949 14.3295ZM13 16.25H2.87499V17.75H13V16.25ZM2.87499 16.25C2.57662 16.25 2.29047 16.1315 2.07949 15.9205L1.01883 16.9812C1.51111 17.4734 2.17879 17.75 2.87499 17.75V16.25ZM2.07949 15.9205C1.90028 15.7413 1.75001 15.3483 1.75001 15H0.250012C0.250012 15.6463 0.494784 16.4571 1.01883 16.9812L2.07949 15.9205ZM6.99999 13C8.95281 13 10.4066 13.183 11.3618 13.3622C11.8395 13.4517 12.1929 13.5404 12.4219 13.6048C12.5365 13.637 12.62 13.6632 12.6724 13.6804C12.6986 13.689 12.7171 13.6954 12.7278 13.6991C12.7332 13.701 12.7366 13.7022 12.738 13.7028C12.7388 13.703 12.739 13.7031 12.7388 13.703C12.7387 13.703 12.7384 13.7029 12.7381 13.7028C12.7379 13.7027 12.7377 13.7026 12.7375 13.7025C12.7373 13.7025 12.7371 13.7024 12.7371 13.7024C12.7369 13.7023 12.7366 13.7022 13 13C13.2633 12.2978 13.2631 12.2977 13.2629 12.2976C13.2628 12.2975 13.2625 12.2974 13.2623 12.2974C13.262 12.2972 13.2616 12.2971 13.2612 12.2969C13.2603 12.2966 13.2593 12.2963 13.2582 12.2959C13.2561 12.2951 13.2534 12.2941 13.2502 12.2929C13.2439 12.2906 13.2356 12.2876 13.2253 12.284C13.2047 12.2768 13.1763 12.2671 13.1401 12.2552C13.0675 12.2313 12.9635 12.1989 12.828 12.1608C12.5571 12.0846 12.1605 11.9858 11.6382 11.8878C10.5934 11.6919 9.04716 11.5 6.99999 11.5V13ZM11.25 15C11.25 15.7254 11.601 16.3787 11.8759 16.791C12.0215 17.0094 12.166 17.1899 12.2743 17.3162C12.3288 17.3798 12.375 17.4306 12.4087 17.4668C12.4256 17.4849 12.4395 17.4994 12.4498 17.5101C12.455 17.5154 12.4592 17.5198 12.4626 17.5232C12.4642 17.5249 12.4657 17.5263 12.4668 17.5275C12.4674 17.5281 12.468 17.5286 12.4684 17.5291C12.4687 17.5293 12.4689 17.5296 12.4691 17.5298C12.4692 17.5299 12.4693 17.53 12.4694 17.5301C12.4695 17.5302 12.4697 17.5303 13 17C13.5303 16.4697 13.5304 16.4698 13.5306 16.4699C13.5306 16.47 13.5307 16.4701 13.5308 16.4701C13.5309 16.4703 13.5311 16.4704 13.5312 16.4705C13.5314 16.4708 13.5316 16.4709 13.5317 16.471C13.5319 16.4713 13.5319 16.4713 13.5317 16.471C13.5312 16.4706 13.5299 16.4692 13.5277 16.467C13.5234 16.4625 13.5157 16.4545 13.5053 16.4433C13.4844 16.4209 13.4525 16.3859 13.4132 16.34C13.334 16.2476 13.2284 16.1156 13.124 15.959C12.8989 15.6213 12.75 15.2746 12.75 15H11.25ZM12.25 13.0002C12.2499 12.8273 12.3119 12.7039 12.3204 12.6861C12.3394 12.6463 12.3573 12.619 12.3627 12.6107C12.3744 12.5929 12.3807 12.5859 12.3701 12.5993C12.3493 12.6254 12.3214 12.6582 12.2668 12.7239C12.1684 12.8425 12.0257 13.0176 11.8808 13.2296C11.606 13.6317 11.25 14.269 11.25 15H12.75C12.75 14.731 12.894 14.4054 13.1192 14.0761C13.2243 13.9223 13.3316 13.7896 13.4207 13.6824C13.4598 13.6353 13.51 13.5758 13.544 13.5331C13.5607 13.5122 13.5884 13.4767 13.6148 13.4367C13.6276 13.4173 13.651 13.3805 13.6738 13.3328C13.6861 13.307 13.75 13.1774 13.75 12.9998L12.25 13.0002ZM13.75 13C13.75 11.7903 13.75 10.2415 13.75 8.99516C13.75 8.37197 13.75 7.82439 13.75 7.43261C13.75 7.23672 13.75 7.07977 13.75 6.9718C13.75 6.94481 13.75 6.92088 13.75 6.90016C13.75 6.84145 13.75 6.89996 13.75 6.84783C13.75 6.79898 13.75 6.85769 13.75 6.81574C13.75 6.80672 13.75 6.81482 13.75 6.80758C13.75 6.80241 13.75 6.81024 13.75 6.80552C13.75 6.80541 13.75 6.80531 13.75 6.80522C13.75 6.80514 13.75 6.80507 13.75 6.80501C13.75 6.80495 13.75 6.80491 13.75 6.80488C13.75 6.80485 13.75 6.80484 13 6.80483C12.25 6.80483 12.25 6.80484 12.25 6.80487C12.25 6.8049 12.25 6.80494 12.25 6.805C12.25 6.80506 12.25 6.80513 12.25 6.80522C12.25 6.8053 12.25 6.8054 12.25 6.80552C12.25 6.81025 12.25 6.80239 12.25 6.80757C12.25 6.81481 12.25 6.80672 12.25 6.81573C12.25 6.85768 12.25 6.79898 12.25 6.84782C12.25 6.89995 12.25 6.84143 12.25 6.90016C12.25 6.92087 12.25 6.94481 12.25 6.9718C12.25 7.07977 12.25 7.23671 12.25 7.4326C12.25 7.82439 12.25 8.37196 12.25 8.99515C12.25 10.2415 12.25 11.7903 12.25 13L13.75 13ZM12.25 4V7H13.75V4H12.25ZM13.75 4C13.75 1.92893 12.0711 0.25 9.99999 0.25V1.75C11.2426 1.75 12.25 2.75736 12.25 4H13.75ZM1.75 4C1.75 2.75736 2.75736 1.75 4 1.75V0.25C1.92893 0.25 0.249997 1.92894 0.25 4.00001L1.75 4ZM1.75001 15L1.75 4L0.25 4.00001L0.250012 15L1.75001 15ZM4 1.75H9.99999V0.25H4V1.75Z" fill="#131214"/>
</svg>
