<svg width="14" height="13" viewBox="0 0 14 13" fill="none" xmlns="http://www.w3.org/2000/svg">
<path d="M12.3334 6.01247V6.50313C12.3328 7.65322 11.9603 8.77229 11.2717 9.69344C10.5831 10.6146 9.61516 11.2885 8.51227 11.6145C7.40938 11.9406 6.23062 11.9015 5.1518 11.5029C4.07298 11.1043 3.1519 10.3677 2.52593 9.4029C1.89996 8.43808 1.60264 7.29677 1.67831 6.14917C1.75398 5.00157 2.19859 3.90917 2.94583 3.03491C3.69307 2.16064 4.7029 1.55134 5.82471 1.29788C6.94653 1.04442 8.12022 1.16038 9.17075 1.62847M5.00008 5.38897L6.7509 7.13979C7.01125 7.40014 7.43336 7.40014 7.69371 7.13979L11.6667 3.16675" stroke="#B4A6FF" stroke-width="1.5" stroke-linecap="round" stroke-linejoin="round"/>
</svg>
