<svg width="18" height="18" viewBox="0 0 18 18" fill="none" xmlns="http://www.w3.org/2000/svg">
<path d="M17 9C17.0032 10.2422 16.713 11.4676 16.1529 12.5765C15.4889 13.9052 14.468 15.0227 13.2046 15.804C11.9413 16.5853 10.4854 16.9994 9 17C7.97753 17.0026 6.96645 16.8065 6.0224 16.4247C5.62628 16.2645 5.19625 16.1914 4.77496 16.2628L2.72923 16.4807C2.03226 16.5549 1.44455 15.9671 1.51894 15.2701L1.73722 13.225C1.80858 12.8038 1.73551 12.3737 1.57531 11.9776C1.19352 11.0336 0.997361 10.0225 1.00003 9C1.0006 7.5146 1.41472 6.05869 2.19599 4.79536C2.97727 3.53202 4.09484 2.51114 5.42354 1.84708C6.53235 1.28702 7.75778 0.996788 9 1.00003H9.47059C11.4323 1.10825 13.2852 1.93627 14.6745 3.32553C16.0637 4.7148 16.8917 6.56768 17 8.52941V9Z" stroke="#7257FF" stroke-width="1.5" stroke-linecap="round" stroke-linejoin="round"/>
</svg>
