<svg width="14" height="10" viewBox="0 0 14 10" fill="none" xmlns="http://www.w3.org/2000/svg">
<path d="M8.18271 6.04117C7.7685 6.04117 7.43271 6.37695 7.43271 6.79117C7.43271 7.20538 7.7685 7.54117 8.18271 7.54117V6.04117ZM9.84416 7.54117C10.2584 7.54117 10.5942 7.20538 10.5942 6.79117C10.5942 6.37695 10.2584 6.04117 9.84416 6.04117V7.54117ZM1.66651 7L2.41651 7L2.41651 7L1.66651 7ZM1.66651 3L2.41651 3V3H1.66651ZM1.6665 4.41667H12.3332V2.91667H1.6665V4.41667ZM8.18271 7.54117H9.84416V6.04117H8.18271V7.54117ZM0.916508 6.99999C0.916505 8.51878 2.14772 9.75 3.66651 9.75V8.25C2.97615 8.25 2.41651 7.69036 2.41651 7L0.916508 6.99999ZM11.5832 7C11.5832 7.69036 11.0235 8.25 10.3332 8.25V9.75C11.852 9.75 13.0832 8.51878 13.0832 7H11.5832ZM13.0832 3C13.0832 1.48122 11.852 0.25 10.3332 0.25V1.75C11.0235 1.75 11.5832 2.30964 11.5832 3H13.0832ZM2.41651 3C2.41651 2.30964 2.97616 1.75 3.66651 1.75V0.25C2.14773 0.25 0.916512 1.48122 0.916512 3H2.41651ZM11.5832 3V7H13.0832V3H11.5832ZM2.41651 7L2.41651 3L0.916512 3L0.916508 7L2.41651 7ZM3.66651 1.75H10.3332V0.25H3.66651V1.75ZM10.3332 8.25H3.66651V9.75H10.3332V8.25Z" fill="white"/>
</svg>
