<svg width="18" height="18" viewBox="0 0 18 18" fill="none" xmlns="http://www.w3.org/2000/svg">
<path d="M6.00369 1C6.00369 0.585786 5.6679 0.25 5.25369 0.25C4.83948 0.25 4.50369 0.585786 4.50369 1H6.00369ZM4.50369 3.81583C4.50369 4.23004 4.83948 4.56583 5.25369 4.56583C5.6679 4.56583 6.00369 4.23004 6.00369 3.81583H4.50369ZM11.972 3.81583C11.972 4.23004 12.3078 4.56583 12.722 4.56583C13.1362 4.56583 13.472 4.23004 13.472 3.81583H11.972ZM13.472 1.00003C13.472 0.585813 13.1362 0.250027 12.722 0.250027C12.3078 0.250027 11.972 0.585813 11.972 1.00003H13.472ZM1.51954 14.1994L2.26954 14.1994L1.51954 14.1994ZM1.51954 4.86398L2.26954 4.86398V4.86398H1.51954ZM4.50369 1V3.81583H6.00369V1H4.50369ZM12.722 2.81336H13.6556V1.31336H12.722V2.81336ZM11.972 2.06336V3.81583H13.472V2.06336H11.972ZM13.472 2.06336V1.00003H11.972V2.06336H13.472ZM0.769535 14.1994C0.769532 16.1603 2.3592 17.75 4.32015 17.75V16.25C3.18763 16.25 2.26953 15.3319 2.26954 14.1994L0.769535 14.1994ZM15.7062 14.1994C15.7062 15.3319 14.7881 16.25 13.6556 16.25V17.75C15.6165 17.75 17.2062 16.1603 17.2062 14.1994H15.7062ZM17.2062 4.86398C17.2062 2.90303 15.6165 1.31336 13.6556 1.31336V2.81336C14.7881 2.81336 15.7062 3.73146 15.7062 4.86398H17.2062ZM2.26954 4.86398C2.26954 3.73146 3.18764 2.81336 4.32016 2.81336V1.31336C2.35921 1.31336 0.769542 2.90303 0.769542 4.86398H2.26954ZM1.51953 7.58312H16.4562V6.08312H1.51953V7.58312ZM15.7062 4.86398V14.1994H17.2062V4.86398H15.7062ZM2.26954 14.1994L2.26954 4.86398L0.769542 4.86398L0.769535 14.1994L2.26954 14.1994ZM4.32016 2.81336H12.722V1.31336H4.32016V2.81336ZM13.6556 16.25H4.32015V17.75H13.6556V16.25Z" fill="#131214"/>
</svg>
