<svg width="19" height="18" viewBox="0 0 19 18" fill="none" xmlns="http://www.w3.org/2000/svg">
<path d="M13.8021 10.2345C13.8021 10.2345 11.9936 15.3115 10.5919 16.1364C9.19029 16.9613 8.25587 15.6692 8.25587 14.7348C8.25587 13.8003 8.89695 10.8878 8.89695 10.8878L3.77478 11.5281C2.47902 11.6901 1.39846 10.5478 1.63206 9.26304L2.75162 3.10546C2.94162 2.06045 3.93882 1.36421 4.98531 1.54591L13.8021 3.07676M13.8021 10.2345V3.07676M13.8021 10.2345H16.0809C16.4838 10.2345 16.8702 10.0745 17.1551 9.78957C17.44 9.50467 17.6001 9.11826 17.6001 8.71535V4.59594C17.6001 4.19303 17.44 3.80662 17.1551 3.52172C16.8702 3.23682 16.4838 3.07676 16.0809 3.07676H13.8021" stroke="#131214" stroke-width="1.5" stroke-linecap="round" stroke-linejoin="round"/>
</svg>
