<svg width="18" height="18" viewBox="0 0 18 18" fill="none" xmlns="http://www.w3.org/2000/svg">
<path d="M6.99963 8.5L7.44406 13.1667M10.9996 8.5L10.5552 13.1667M1.34961 4.92453H3.16088M3.16088 4.92453C7.87664 4.92453 16.6334 4.92453 16.6334 4.92453M3.16088 4.92453L3.80569 14.2079C3.91491 15.7803 5.2223 17 6.79848 17H11.2229C12.79 17 14.093 15.7939 14.214 14.2316L14.9345 4.92453C14.9345 4.92453 7.28717 4.92453 3.16088 4.92453ZM5.87791 4.92453V3C5.87791 1.89543 6.77334 1 7.87791 1H10.2175C11.3221 1 12.2175 1.89543 12.2175 3V4.92453" stroke="#131214" stroke-width="1.5" stroke-linecap="round" stroke-linejoin="round"/>
</svg>
