<svg width="22" height="14" viewBox="0 0 22 14" fill="none" xmlns="http://www.w3.org/2000/svg">
<path d="M1.21336 7.29086C0.928881 7.00638 0.928881 6.54516 1.21336 6.26068L3.2737 4.20034C7.54082 -0.0667791 14.4592 -0.0667791 18.7263 4.20034L20.7866 6.26068C21.0711 6.54516 21.0711 7.00638 20.7866 7.29086L18.7263 9.3512C14.4592 13.6183 7.54082 13.6183 3.2737 9.3512L1.21336 7.29086Z" stroke="#898D8F" stroke-width="1.5"/>
<path d="M13.8102 6.77577C13.8102 8.385 12.5057 9.68954 10.8965 9.68954C9.28723 9.68954 7.98269 8.385 7.98269 6.77577C7.98269 5.16654 9.28723 3.862 10.8965 3.862C12.5057 3.862 13.8102 5.16654 13.8102 6.77577Z" stroke="#898D8F" stroke-width="1.5"/>
</svg>
