<svg width="18" height="24" viewBox="0 0 18 24" fill="none" xmlns="http://www.w3.org/2000/svg">
<path d="M3.33417 10.8794C2.85145 11.3844 2.42011 11.8372 2.06353 12.2121C1.66055 12.6359 1.96183 13.3335 2.54662 13.3335H6.65564C7.13425 13.3335 7.45919 13.8203 7.27389 14.2615C6.28288 16.6216 3.7968 22.6668 4.33333 22.6668C4.86987 22.6668 7.11202 20.0759 9.66664 17.3018M7.56762 6.4949C10.2041 3.799 12.3333 1.3335 13 1.3335C13.6667 1.3335 11.0505 7.37872 10.0595 9.73878C9.87416 10.1801 10.1991 10.6668 10.6777 10.6668H14.1821C14.7573 10.6668 15.0616 11.3457 14.6779 11.7742C14.432 12.0489 14.1478 12.3658 13.8341 12.7149M1 4.26683L17 20.2668" stroke="white" stroke-width="1.5" stroke-linecap="round"/>
</svg>
