<svg width="18" height="18" viewBox="0 0 18 18" fill="none" xmlns="http://www.w3.org/2000/svg">
<path d="M2 15.2222C2 15.2222 2.1873 16.1459 2.5207 16.4793C2.8541 16.8127 3.30628 17 3.77778 17H4.66667C5.13816 17 5.59035 16.8127 5.92375 16.4793C6.25714 16.1459 6.44444 15.6937 6.44444 15.2222V12.5556C6.44444 12.0841 6.25714 11.6319 5.92375 11.2985C5.59035 10.9651 5.13816 10.7778 4.66667 10.7778H1.14411L2 15.2222ZM2 15.2222C2 15.2222 1 11.1217 1 9C1 6.87827 1.84285 4.84344 3.34315 3.34315C4.84344 1.84285 6.87827 1 9 1C11.1217 1 13.1566 1.84285 14.6569 3.34315C16.1571 4.84344 17 6 17 9C17 12 16 15.2222 16 15.2222M16 15.2222C16 15.2222 15.8127 16.1459 15.4793 16.4793C15.1459 16.8127 14.6937 17 14.2222 17H13.3333C12.8618 17 12.4097 16.8127 12.0763 16.4793C11.7429 16.1459 11.5556 15.6937 11.5556 15.2222V12.5556C11.5556 12.0841 11.7429 11.6319 12.0763 11.2985C12.4097 10.9651 12.8618 10.7778 13.3333 10.7778H16.8983L16 15.2222Z" stroke="#131214" stroke-width="1.5" stroke-linecap="round" stroke-linejoin="round"/>
</svg>
