<svg width="14" height="14" viewBox="0 0 14 14" fill="none" xmlns="http://www.w3.org/2000/svg">
<path d="M9.93782 4.06767H9.94316M1.66699 10.3333C1.66699 11.4379 2.56242 12.3333 3.66699 12.3333H10.3337C11.4382 12.3333 12.3337 11.4379 12.3337 10.3333V3.66663C12.3337 2.56206 11.4382 1.66663 10.3337 1.66663H3.667C2.56243 1.66663 1.667 2.56206 1.667 3.66663L1.66699 10.3333ZM9.13975 6.66412C9.20557 7.10798 9.12975 7.5613 8.92309 7.95959C8.71642 8.35789 8.38943 8.68087 7.98862 8.88261C7.58781 9.08435 7.13359 9.15457 6.69057 9.08328C6.24755 9.012 5.83829 8.80283 5.521 8.48554C5.20371 8.16825 4.99454 7.75899 4.92325 7.31597C4.85196 6.87295 4.92218 6.41873 5.12392 6.01792C5.32566 5.61711 5.64865 5.29012 6.04694 5.08345C6.44523 4.87678 6.89855 4.80097 7.34242 4.86679C7.79518 4.93393 8.21434 5.1449 8.53799 5.46855C8.86164 5.7922 9.07261 6.21136 9.13975 6.66412Z" stroke="#7257FF" stroke-width="1.5" stroke-linecap="round" stroke-linejoin="round"/>
</svg>
