<svg width="18" height="18" viewBox="0 0 18 18" fill="none" xmlns="http://www.w3.org/2000/svg">
<path d="M4.79796 7.66537C4.79796 7.66537 6.60654 2.58841 8.00817 1.76349C9.40981 0.938566 10.3442 2.2307 10.3442 3.16513C10.3442 4.09957 9.70315 7.01206 9.70315 7.01206L14.8253 6.37179C16.1211 6.20982 17.2016 7.35208 16.968 8.63686L15.8485 14.7944C15.6585 15.8395 14.6613 16.5357 13.6148 16.354L4.79796 14.8231M4.79796 7.66537V14.8231M4.79796 7.66537H2.51918C2.11627 7.66537 1.72986 7.82543 1.44496 8.11033C1.16006 8.39523 1 8.78164 1 9.18455V13.304C1 13.7069 1.16006 14.0933 1.44496 14.3782C1.72986 14.6631 2.11627 14.8231 2.51918 14.8231H4.79796" stroke="#131214" stroke-width="1.5" stroke-linecap="round" stroke-linejoin="round"/>
</svg>
