<svg width="12" height="14" viewBox="0 0 12 14" fill="none" xmlns="http://www.w3.org/2000/svg">
<path d="M3.46684 6.4665V4.33317C3.46684 3.62593 3.74779 2.94765 4.24788 2.44755C4.74798 1.94746 5.42626 1.6665 6.1335 1.6665C6.84075 1.6665 7.51902 1.94746 8.01912 2.44755C8.51922 2.94765 8.80017 3.62593 8.80017 4.33317V4.39567M3.33349 12.3332H8.9335C10.0381 12.3332 10.9335 11.4377 10.9335 10.3332V8.4665C10.9335 7.36193 10.0381 6.4665 8.9335 6.4665H3.3335C2.22893 6.4665 1.3335 7.36193 1.3335 8.4665L1.3335 10.3332C1.33349 11.4377 2.22892 12.3332 3.33349 12.3332Z" stroke="white" stroke-width="1.5" stroke-linecap="round" stroke-linejoin="round"/>
</svg>
