<svg width="18" height="18" viewBox="0 0 18 18" fill="none" xmlns="http://www.w3.org/2000/svg">
<path d="M8 10.5C8 10.5 8.17724 10.6406 8.68345 10.9172C9.18966 11.1937 9.74943 11.3582 10.3248 11.3994C10.9002 11.4406 11.4777 11.3576 12.0181 11.156C12.5586 10.9544 13.0493 10.6389 13.4572 10.2309L15.8708 7.81732C16.6035 7.05863 17.009 6.04249 16.9998 4.98775C16.9907 3.93301 16.5676 2.92407 15.8218 2.17822C15.0759 1.43238 14.067 1.00932 13.0122 1.00015C11.9575 0.990987 10.9414 1.39645 10.1827 2.12922L8.79886 3.50499M10 7.5C10 7.5 9.82276 7.3433 9.31655 7.06674C8.81033 6.79017 8.25056 6.62571 7.6752 6.5845C7.09984 6.54329 6.52235 6.62631 5.98189 6.82792C5.44143 7.02952 4.95065 7.345 4.54284 7.75296L2.12922 10.1666C1.39645 10.9253 0.990987 11.9414 1.00015 12.9962C1.00932 14.0509 1.43238 15.0598 2.17822 15.8057C2.92407 16.5515 3.93301 16.9746 4.98775 16.9838C6.04249 16.9929 7.05863 16.5875 7.81732 15.8547L9.19309 14.4789" stroke="#131214" stroke-width="1.5" stroke-linecap="round" stroke-linejoin="round"/>
</svg>
