<svg width="18" height="18" viewBox="0 0 18 18" fill="none" xmlns="http://www.w3.org/2000/svg">
<path d="M16.2061 10.2302C16.5976 10.0374 17.0869 10.3319 16.9868 10.7567C16.7225 11.8785 16.2207 12.9354 15.5105 13.8539C14.5693 15.0713 13.3009 15.9954 11.8536 16.5182C10.4064 17.0409 8.84015 17.1407 7.33826 16.8058C5.83637 16.4709 4.46092 15.7152 3.37284 14.6272C2.28476 13.5391 1.52907 12.1636 1.19418 10.6617C0.859298 9.15985 0.959071 7.59365 1.48183 6.14639C2.00459 4.69914 2.92871 3.4307 4.14606 2.48948C5.06464 1.77927 6.12152 1.27754 7.24328 1.01321C7.6681 0.913104 7.9626 1.40237 7.76983 1.79395C7.27644 2.79617 7.05528 3.91817 7.13935 5.04561C7.25159 6.55064 7.90028 7.96539 8.96745 9.03255C10.0346 10.0997 11.4494 10.7484 12.9544 10.8606C14.0818 10.9447 15.2038 10.7236 16.2061 10.2302Z" stroke="#131214" stroke-width="1.5" stroke-linecap="round" stroke-linejoin="round"/>
</svg>
