<svg width="24" height="5" viewBox="0 0 24 5" fill="none" xmlns="http://www.w3.org/2000/svg">
<path d="M12.8204 2.48751C12.8204 2.94066 12.4531 3.30802 11.9999 3.30802C11.5468 3.30802 11.1794 2.94066 11.1794 2.48751C11.1794 2.03435 11.5468 1.66699 11.9999 1.66699C12.4531 1.66699 12.8204 2.03435 12.8204 2.48751Z" fill="#131214"/>
<path d="M22.6666 2.48751C22.6666 2.94066 22.2992 3.30802 21.8461 3.30802C21.3929 3.30802 21.0256 2.94066 21.0256 2.48751C21.0256 2.03435 21.3929 1.66699 21.8461 1.66699C22.2992 1.66699 22.6666 2.03435 22.6666 2.48751Z" fill="#131214"/>
<path d="M2.97428 2.48751C2.97428 2.94066 2.60692 3.30802 2.15376 3.30802C1.70061 3.30802 1.33325 2.94066 1.33325 2.48751C1.33325 2.03435 1.70061 1.66699 2.15376 1.66699C2.60692 1.66699 2.97428 2.03435 2.97428 2.48751Z" fill="#131214"/>
<path d="M12.8204 2.48751C12.8204 2.94066 12.4531 3.30802 11.9999 3.30802C11.5468 3.30802 11.1794 2.94066 11.1794 2.48751C11.1794 2.03435 11.5468 1.66699 11.9999 1.66699C12.4531 1.66699 12.8204 2.03435 12.8204 2.48751Z" stroke="#7257FF" stroke-width="1.5"/>
<path d="M22.6666 2.48751C22.6666 2.94066 22.2992 3.30802 21.8461 3.30802C21.3929 3.30802 21.0256 2.94066 21.0256 2.48751C21.0256 2.03435 21.3929 1.66699 21.8461 1.66699C22.2992 1.66699 22.6666 2.03435 22.6666 2.48751Z" stroke="#7257FF" stroke-width="1.5"/>
<path d="M2.97428 2.48751C2.97428 2.94066 2.60692 3.30802 2.15376 3.30802C1.70061 3.30802 1.33325 2.94066 1.33325 2.48751C1.33325 2.03435 1.70061 1.66699 2.15376 1.66699C2.60692 1.66699 2.97428 2.03435 2.97428 2.48751Z" stroke="#7257FF" stroke-width="1.5"/>
</svg>
