<svg width="29" height="29" viewBox="0 0 29 29" fill="none" xmlns="http://www.w3.org/2000/svg">
<path d="M9.80551 22.8891L8.53722 8.23321C8.31231 5.63419 10.1234 3.29904 12.6966 2.87017L20.5797 1.55631C23.4567 1.07682 26.1316 3.15144 26.3831 6.0572L27.5833 19.9261M9.80551 22.8891C9.80551 25.3437 7.81567 27.3335 5.36107 27.3335C2.90647 27.3335 0.916626 25.3437 0.916626 22.8891C0.916626 20.4345 2.90647 18.4446 5.36107 18.4446C7.81567 18.4446 9.80551 20.4345 9.80551 22.8891ZM27.5833 19.9261C27.5833 22.3807 25.5934 24.3705 23.1388 24.3705C20.6843 24.3705 18.6944 22.3807 18.6944 19.9261C18.6944 17.4715 20.6843 15.4816 23.1388 15.4816C25.5934 15.4816 27.5833 17.4715 27.5833 19.9261Z" stroke="#131214" stroke-width="1.5" stroke-linecap="round" stroke-linejoin="round"/>
</svg>
