<svg width="4" height="20" viewBox="0 0 4 20" fill="none" xmlns="http://www.w3.org/2000/svg">
<path d="M2.66634 9.66667C2.66634 10.0349 2.36786 10.3333 1.99967 10.3333C1.63148 10.3333 1.33301 10.0349 1.33301 9.66667C1.33301 9.29848 1.63148 9 1.99967 9C2.36786 9 2.66634 9.29848 2.66634 9.66667Z" fill="#131214"/>
<path d="M2.66634 17.6667C2.66634 18.0349 2.36786 18.3333 1.99967 18.3333C1.63148 18.3333 1.33301 18.0349 1.33301 17.6667C1.33301 17.2985 1.63148 17 1.99967 17C2.36786 17 2.66634 17.2985 2.66634 17.6667Z" fill="#131214"/>
<path d="M2.66634 1.66667C2.66634 2.03486 2.36786 2.33333 1.99967 2.33333C1.63148 2.33333 1.33301 2.03486 1.33301 1.66667C1.33301 1.29848 1.63148 1 1.99967 1C2.36786 1 2.66634 1.29848 2.66634 1.66667Z" fill="#131214"/>
<path d="M2.66634 9.66667C2.66634 10.0349 2.36786 10.3333 1.99967 10.3333C1.63148 10.3333 1.33301 10.0349 1.33301 9.66667C1.33301 9.29848 1.63148 9 1.99967 9C2.36786 9 2.66634 9.29848 2.66634 9.66667Z" stroke="#7257FF" stroke-width="1.5"/>
<path d="M2.66634 17.6667C2.66634 18.0349 2.36786 18.3333 1.99967 18.3333C1.63148 18.3333 1.33301 18.0349 1.33301 17.6667C1.33301 17.2985 1.63148 17 1.99967 17C2.36786 17 2.66634 17.2985 2.66634 17.6667Z" stroke="#7257FF" stroke-width="1.5"/>
<path d="M2.66634 1.66667C2.66634 2.03486 2.36786 2.33333 1.99967 2.33333C1.63148 2.33333 1.33301 2.03486 1.33301 1.66667C1.33301 1.29848 1.63148 1 1.99967 1C2.36786 1 2.66634 1.29848 2.66634 1.66667Z" stroke="#7257FF" stroke-width="1.5"/>
</svg>
