<svg width="13" height="18" viewBox="0 0 13 18" fill="none" xmlns="http://www.w3.org/2000/svg">
<path d="M11.5004 7.50004L11.1822 9C11.1822 9 10.8648 11.4262 9.69112 12.5998C8.73639 13.5545 7.44149 14.0909 6.0913 14.0909M6.0913 14.0909C4.74111 14.0909 3.44621 13.5545 2.49148 12.5998C1.07348 11.1818 0.900391 7.54545 0.900391 7.54545M6.0913 14.0909V17M3.18221 17H9.00039M6.1913 1C4.60039 1 3.60039 2 3.60039 3.18182C3.60039 3.18182 3.60039 6.5 4.00948 9C4.11479 9.64357 4.23935 10.1336 4.64852 10.5428C5.05769 10.9519 5.61265 11.1818 6.1913 11.1818C6.76995 11.1818 7.32491 10.9519 7.73408 10.5428C8.14325 10.1336 8.37312 9 8.37312 9C8.83361 6 8.83361 3.18182 8.83361 3.18182C8.83361 2.37658 8.10039 1 6.1913 1Z" stroke="#131214" stroke-width="1.5" stroke-linecap="round" stroke-linejoin="round"/>
</svg>
