<svg width="18" height="18" viewBox="0 0 18 18" fill="none" xmlns="http://www.w3.org/2000/svg">
<path d="M5.70951 12.7132C2.25636 9.55299 1.349 6.28001 1.16141 4.232C1.04703 2.98325 2.02938 2.02568 3.26834 1.83219L4.69573 1.60927C6.10101 1.38981 7.42662 2.32592 7.68987 3.72365L7.91778 4.93372C8.02135 5.48365 7.71682 6.02896 7.19429 6.22924C6.59715 6.45811 6.3046 7.1266 6.60957 7.68869C6.97455 8.36138 7.53551 9.23319 8.27498 9.90994C9.01446 10.5867 9.93246 11.0684 10.6348 11.3724C11.2216 11.6265 11.8616 11.276 12.0368 10.661C12.1901 10.1228 12.7064 9.77124 13.2633 9.82579L14.4888 9.94582C15.9043 10.0845 16.954 11.3221 16.8596 12.7413L16.7637 14.1828C16.6806 15.434 15.8136 16.4972 14.5596 16.4937C12.503 16.4879 9.16265 15.8734 5.70951 12.7132Z" stroke="#131214" stroke-width="1.5"/>
</svg>
