<svg width="24" height="24" viewBox="0 0 24 24" fill="none" xmlns="http://www.w3.org/2000/svg">
<path d="M8.89567 8.80016C9.14645 8.08727 9.64144 7.48614 10.293 7.10324C10.9445 6.72033 11.7105 6.58036 12.4553 6.70812C13.2002 6.83588 13.8757 7.22312 14.3624 7.80126C14.8491 8.3794 15.1155 9.11112 15.1143 9.86683C15.1143 12.0002 13.5692 11.7303 12.3997 13.0668C12.1482 13.3542 11.9997 13.8668 11.9997 13.8668M11.9997 17.3335H12.0103M22.6663 12.0002C22.6663 17.8912 17.8907 22.6668 11.9997 22.6668C6.10864 22.6668 1.33301 17.8912 1.33301 12.0002C1.33301 6.10912 6.10864 1.3335 11.9997 1.3335C17.8907 1.3335 22.6663 6.10912 22.6663 12.0002Z" stroke="white" stroke-width="1.5" stroke-linecap="round" stroke-linejoin="round"/>
</svg>
