<svg width="22" height="24" viewBox="0 0 22 24" fill="none" xmlns="http://www.w3.org/2000/svg">
<path d="M19.6123 13.1851C19.6123 12.7709 19.9481 12.4351 20.3623 12.4351C20.7765 12.4351 21.1123 12.7709 21.1123 13.1851H19.6123ZM17.5988 5.46792C17.9111 5.74001 17.9437 6.21376 17.6716 6.52607C17.3995 6.83839 16.9258 6.871 16.6135 6.59891L17.5988 5.46792ZM17.2419 1.33325C17.2419 0.919038 17.5777 0.583252 17.9919 0.583252C18.4061 0.583252 18.7419 0.919038 18.7419 1.33325H17.2419ZM17.9919 7.02254H18.7419C18.7419 7.43676 18.4061 7.77254 17.9919 7.77254V7.02254ZM12.3026 7.77254C11.8884 7.77254 11.5526 7.43676 11.5526 7.02254C11.5526 6.60833 11.8884 6.27254 12.3026 6.27254V7.77254ZM2.14934 13.1851C2.14934 18.0074 6.05856 21.9166 10.8808 21.9166V23.4166C5.23013 23.4166 0.649342 18.8358 0.649342 13.1851H2.14934ZM10.8808 21.9166C15.7031 21.9166 19.6123 18.0074 19.6123 13.1851H21.1123C21.1123 18.8358 16.5315 23.4166 10.8808 23.4166V21.9166ZM10.8808 4.45362C6.05856 4.45362 2.14934 8.36284 2.14934 13.1851H0.649342C0.649342 7.53441 5.23013 2.95362 10.8808 2.95362V4.45362ZM16.6135 6.59891C15.0792 5.26228 13.0754 4.45362 10.8808 4.45362V2.95362C13.4512 2.95362 15.8019 3.90244 17.5988 5.46792L16.6135 6.59891ZM18.7419 1.33325V7.02254H17.2419V1.33325H18.7419ZM17.9919 7.77254H12.3026V6.27254H17.9919V7.77254Z" fill="#131214"/>
</svg>
