<svg width="16" height="18" viewBox="0 0 16 18" fill="none" xmlns="http://www.w3.org/2000/svg">
<path d="M1.55078 9.88889C1.55078 9.47468 1.21499 9.13889 0.800781 9.13889C0.386568 9.13889 0.0507812 9.47468 0.0507812 9.88889H1.55078ZM2.75025 3.95963C2.43794 4.23171 2.40533 4.70547 2.67742 5.01778C2.9495 5.3301 3.42326 5.36271 3.73557 5.09062L2.75025 3.95963ZM3.32856 1C3.32856 0.585786 2.99277 0.25 2.57856 0.25C2.16435 0.25 1.82856 0.585786 1.82856 1H3.32856ZM2.57856 5.26697H1.82856C1.82856 5.68118 2.16435 6.01697 2.57856 6.01697V5.26697ZM6.84553 6.01697C7.25974 6.01697 7.59553 5.68118 7.59553 5.26697C7.59553 4.85276 7.25974 4.51697 6.84553 4.51697V6.01697ZM14.273 9.88889C14.273 13.402 11.425 16.25 7.91189 16.25V17.75C12.2535 17.75 15.773 14.2305 15.773 9.88889H14.273ZM7.91189 16.25C4.39875 16.25 1.55078 13.402 1.55078 9.88889H0.0507812C0.0507812 14.2305 3.57032 17.75 7.91189 17.75V16.25ZM7.91189 3.52778C11.425 3.52778 14.273 6.37574 14.273 9.88889H15.773C15.773 5.54732 12.2535 2.02778 7.91189 2.02778V3.52778ZM3.73557 5.09062C4.85342 4.11675 6.31294 3.52778 7.91189 3.52778V2.02778C5.93711 2.02778 4.13077 2.75692 2.75025 3.95963L3.73557 5.09062ZM1.82856 1V5.26697H3.32856V1H1.82856ZM2.57856 6.01697H6.84553V4.51697H2.57856V6.01697Z" fill="#131214"/>
</svg>
