<svg width="16" height="18" viewBox="0 0 16 18" fill="none" xmlns="http://www.w3.org/2000/svg">
<path d="M14.2715 9.88889C14.2715 9.47468 14.6073 9.13889 15.0215 9.13889C15.4357 9.13889 15.7715 9.47468 15.7715 9.88889H14.2715ZM13.072 3.95963C13.3843 4.23171 13.4169 4.70547 13.1449 5.01778C12.8728 5.3301 12.399 5.36271 12.0867 5.09062L13.072 3.95963ZM12.4937 1C12.4937 0.585786 12.8295 0.25 13.2437 0.25C13.6579 0.25 13.9937 0.585786 13.9937 1H12.4937ZM13.2437 5.26697H13.9937C13.9937 5.68118 13.6579 6.01697 13.2437 6.01697V5.26697ZM8.97674 6.01697C8.56252 6.01697 8.22674 5.68118 8.22674 5.26697C8.22674 4.85276 8.56252 4.51697 8.97674 4.51697V6.01697ZM1.54926 9.88889C1.54926 13.402 4.39723 16.25 7.91037 16.25V17.75C3.5688 17.75 0.049262 14.2305 0.049262 9.88889H1.54926ZM7.91037 16.25C11.4235 16.25 14.2715 13.402 14.2715 9.88889H15.7715C15.7715 14.2305 12.2519 17.75 7.91037 17.75V16.25ZM7.91037 3.52778C4.39723 3.52778 1.54926 6.37574 1.54926 9.88889H0.049262C0.049262 5.54732 3.5688 2.02778 7.91037 2.02778V3.52778ZM12.0867 5.09062C10.9688 4.11675 9.50932 3.52778 7.91037 3.52778V2.02778C9.88515 2.02778 11.6915 2.75692 13.072 3.95963L12.0867 5.09062ZM13.9937 1V5.26697H12.4937V1H13.9937ZM13.2437 6.01697H8.97674V4.51697H13.2437V6.01697Z" fill="#131214"/>
</svg>
