<svg width="22" height="24" viewBox="0 0 22 24" fill="none" xmlns="http://www.w3.org/2000/svg">
<path d="M2.15137 13.1851C2.15137 12.7709 1.81558 12.4351 1.40137 12.4351C0.987154 12.4351 0.651367 12.7709 0.651367 13.1851H2.15137ZM4.16488 5.46792C3.85257 5.74001 3.81996 6.21376 4.09204 6.52607C4.36413 6.83839 4.83789 6.871 5.1502 6.59891L4.16488 5.46792ZM4.52174 1.33325C4.52174 0.919038 4.18595 0.583252 3.77174 0.583252C3.35752 0.583252 3.02174 0.919038 3.02174 1.33325H4.52174ZM3.77174 7.02254H3.02174C3.02174 7.43676 3.35752 7.77254 3.77174 7.77254V7.02254ZM9.46103 7.77254C9.87524 7.77254 10.211 7.43676 10.211 7.02254C10.211 6.60833 9.87524 6.27254 9.46103 6.27254V7.77254ZM19.6143 13.1851C19.6143 18.0074 15.7051 21.9166 10.8828 21.9166V23.4166C16.5335 23.4166 21.1143 18.8358 21.1143 13.1851H19.6143ZM10.8828 21.9166C6.06058 21.9166 2.15137 18.0074 2.15137 13.1851H0.651367C0.651367 18.8358 5.23216 23.4166 10.8828 23.4166V21.9166ZM10.8828 4.45362C15.7051 4.45362 19.6143 8.36284 19.6143 13.1851H21.1143C21.1143 7.53441 16.5335 2.95362 10.8828 2.95362V4.45362ZM5.1502 6.59891C6.68444 5.26228 8.68828 4.45362 10.8828 4.45362V2.95362C8.31245 2.95362 5.96179 3.90244 4.16488 5.46792L5.1502 6.59891ZM3.02174 1.33325V7.02254H4.52174V1.33325H3.02174ZM3.77174 7.77254H9.46103V6.27254H3.77174V7.77254Z" fill="#131214"/>
</svg>
