<svg width="17" height="18" viewBox="0 0 17 18" fill="none" xmlns="http://www.w3.org/2000/svg">
<path d="M5.67195 10.208L11.136 13.392M11.128 4.608L5.67195 7.792M15.6 3.4C15.6 4.72548 14.5254 5.8 13.2 5.8C11.8745 5.8 10.8 4.72548 10.8 3.4C10.8 2.07452 11.8745 1 13.2 1C14.5254 1 15.6 2.07452 15.6 3.4ZM5.99995 9C5.99995 10.3255 4.92543 11.4 3.59995 11.4C2.27447 11.4 1.19995 10.3255 1.19995 9C1.19995 7.67452 2.27447 6.6 3.59995 6.6C4.92543 6.6 5.99995 7.67452 5.99995 9ZM15.6 14.6C15.6 15.9255 14.5254 17 13.2 17C11.8745 17 10.8 15.9255 10.8 14.6C10.8 13.2745 11.8745 12.2 13.2 12.2C14.5254 12.2 15.6 13.2745 15.6 14.6Z" stroke="#131214" stroke-width="1.5" stroke-linecap="round" stroke-linejoin="round"/>
</svg>
