<svg width="18" height="18" viewBox="0 0 18 18" fill="none" xmlns="http://www.w3.org/2000/svg">
<path d="M8.54241 1.58423C8.72961 1.20499 9.27039 1.205 9.45759 1.58423L11.4157 5.55111C11.5642 5.85203 11.8512 6.0607 12.1833 6.10923L16.5629 6.74939C16.9814 6.81055 17.1481 7.32485 16.8452 7.61989L13.6773 10.7054C13.4366 10.9399 13.3267 11.2779 13.3835 11.6091L14.131 15.9675C14.2025 16.3844 13.7649 16.7023 13.3905 16.5054L9.47504 14.4463C9.17765 14.2899 8.82235 14.2899 8.52496 14.4463L4.60946 16.5054C4.23509 16.7023 3.79749 16.3844 3.86899 15.9675L4.61652 11.6091C4.67332 11.2779 4.56344 10.9399 4.32271 10.7054L1.1548 7.61988C0.851892 7.32485 1.01865 6.81055 1.43705 6.74939L5.81675 6.10923C6.14881 6.0607 6.43578 5.85203 6.58432 5.55111L8.54241 1.58423Z" stroke="#131214" stroke-width="1.5" stroke-linecap="round" stroke-linejoin="round"/>
</svg>
