<svg width="35" height="33" viewBox="0 0 35 33" fill="none" xmlns="http://www.w3.org/2000/svg">
<path d="M16.5848 2.16895C16.9592 1.41048 18.0408 1.41048 18.4152 2.16896L22.3314 10.1027C22.6284 10.7045 23.2024 11.1219 23.8665 11.219L32.6259 12.4993C33.4627 12.6216 33.7962 13.6502 33.1904 14.2403L26.8546 20.4113C26.3731 20.8803 26.1534 21.5562 26.267 22.2186L27.762 30.9355C27.905 31.7693 27.0298 32.4051 26.2811 32.0114L18.4501 27.8931C17.8553 27.5804 17.1447 27.5804 16.5499 27.8931L8.71893 32.0114C7.97019 32.4051 7.09497 31.7693 7.23798 30.9355L8.73303 22.2186C8.84665 21.5562 8.62689 20.8803 8.14542 20.4113L1.8096 14.2403C1.20378 13.6502 1.5373 12.6216 2.3741 12.4993L11.1335 11.219C11.7976 11.1219 12.3716 10.7045 12.6686 10.1027L16.5848 2.16895Z" stroke="#DADDDE" stroke-width="1.5" stroke-linecap="round" stroke-linejoin="round"/>
</svg>
