<svg width="19" height="18" viewBox="0 0 19 18" fill="none" xmlns="http://www.w3.org/2000/svg">
<path d="M9.39988 7.8V10.2M9.39988 10.2V12.6M9.39988 10.2H6.99988M9.39988 10.2H11.7999M1.3999 13.5C1.3999 15.1569 2.74304 16.5 4.3999 16.5H14.3999C16.0568 16.5 17.3999 15.1569 17.3999 13.5V7C17.3999 5.34315 16.0575 4 14.4006 4C12.9641 4 11.3543 4 10.3588 4C9.75118 4 9.17896 3.72382 8.79941 3.24939L8.30063 2.62591C7.73132 1.91427 6.86938 1.5 5.95803 1.5H3.39991C2.29534 1.5 1.39991 2.39543 1.39991 3.5L1.3999 13.5Z" stroke="#131214" stroke-width="1.5" stroke-linecap="round" stroke-linejoin="round"/>
</svg>
