<svg width="18" height="14" viewBox="0 0 18 14" fill="none" xmlns="http://www.w3.org/2000/svg">
<path d="M12.3927 3.26448C12.8391 3.71037 13.1932 4.23987 13.4348 4.8227C13.6764 5.40554 13.8008 6.03028 13.8008 6.66121C13.8008 7.29214 13.6764 7.91688 13.4348 8.49972C13.1932 9.08255 12.8391 9.61205 12.3927 10.0579M5.60728 10.0499C5.16089 9.60405 4.80677 9.07455 4.56517 8.49171C4.32356 7.90888 4.1992 7.28414 4.1992 6.65321C4.1992 6.02228 4.32356 5.39754 4.56517 4.8147C4.80677 4.23187 5.16089 3.70237 5.60728 3.25648M14.6572 1C16.1573 2.50054 17 4.53544 17 6.65721C17 8.77897 16.1573 10.8139 14.6572 12.3144M3.34279 12.3144C1.8427 10.8139 1 8.77897 1 6.65721C1 4.53544 1.8427 2.50054 3.34279 1M10.6003 6.65721C10.6003 7.54105 9.88385 8.25755 9 8.25755C8.11616 8.25755 7.39966 7.54105 7.39966 6.65721C7.39966 5.77336 8.11616 5.05687 9 5.05687C9.88385 5.05687 10.6003 5.77336 10.6003 6.65721Z" stroke="#131214" stroke-width="1.5" stroke-linecap="round" stroke-linejoin="round"/>
</svg>
