<svg width="28" height="30" viewBox="0 0 28 30" fill="none" xmlns="http://www.w3.org/2000/svg">
<path d="M20.5756 6.39185L20.9506 7.04136L20.9506 7.04136L20.5756 6.39185ZM25.129 7.61193L25.7786 7.23693L25.7786 7.23693L25.129 7.61193ZM25.9624 9.05531L25.3129 9.43031L25.3129 9.43031L25.9624 9.05531ZM24.7423 13.6087L25.1173 14.2582L25.1173 14.2582L24.7423 13.6087ZM24.7423 16.3918L24.3673 17.0414L24.7423 16.3918ZM25.9624 20.9453L26.6119 21.3203L26.6119 21.3203L25.9624 20.9453ZM25.1291 22.3886L24.4796 22.0136L24.4796 22.0136L25.1291 22.3886ZM20.5757 23.6087L20.9507 22.9592L20.9507 22.9592L20.5757 23.6087ZM7.42178 23.6087L7.04678 22.9592L7.04678 22.9592L7.42178 23.6087ZM2.86836 22.3886L3.51788 22.0136L3.51788 22.0136L2.86836 22.3886ZM2.03503 20.9453L1.38551 21.3203L1.38551 21.3203L2.03503 20.9453ZM3.25511 16.3918L2.88011 15.7423L2.88011 15.7423L3.25511 16.3918ZM3.25515 13.6087L2.88015 14.2582L2.88015 14.2582L3.25515 13.6087ZM2.03507 9.05531L1.38555 8.68031L1.38555 8.68031L2.03507 9.05531ZM2.8684 7.61193L3.51792 7.98693L3.51792 7.98693L2.8684 7.61193ZM7.42182 6.39185L7.04682 7.04136L7.04682 7.04136L7.42182 6.39185ZM13.1652 0.916992C10.9101 0.916992 9.0819 2.74516 9.0819 5.00033H10.5819C10.5819 3.57359 11.7385 2.41699 13.1652 2.41699V0.916992ZM14.8319 0.916992H13.1652V2.41699H14.8319V0.916992ZM18.9152 5.00033C18.9152 2.74516 17.0871 0.916992 14.8319 0.916992V2.41699C16.2586 2.41699 17.4152 3.57359 17.4152 5.00033H18.9152ZM25.7786 7.23693C24.651 5.2839 22.1537 4.61474 20.2006 5.74233L20.9506 7.04136C22.1862 6.328 23.7662 6.75134 24.4795 7.98693L25.7786 7.23693ZM26.6119 8.68031L25.7786 7.23693L24.4795 7.98693L25.3129 9.43031L26.6119 8.68031ZM25.1173 14.2582C27.0703 13.1307 27.7395 10.6333 26.6119 8.68031L25.3129 9.43031C26.0262 10.6659 25.6029 12.2458 24.3673 12.9592L25.1173 14.2582ZM26.6119 21.3203C27.7395 19.3672 27.0704 16.8699 25.1173 15.7423L24.3673 17.0414C25.6029 17.7547 26.0263 19.3347 25.3129 20.5703L26.6119 21.3203ZM25.7786 22.7636L26.6119 21.3203L25.3129 20.5703L24.4796 22.0136L25.7786 22.7636ZM20.2007 24.2582C22.1537 25.3858 24.651 24.7167 25.7786 22.7636L24.4796 22.0136C23.7662 23.2492 22.1863 23.6726 20.9507 22.9592L20.2007 24.2582ZM14.8319 29.0837C17.0871 29.0837 18.9152 27.2555 18.9152 25.0003H17.4152C17.4152 26.4271 16.2586 27.5837 14.8319 27.5837V29.0837ZM13.1652 29.0837H14.8319V27.5837H13.1652V29.0837ZM9.0819 25.0003C9.0819 27.2555 10.9101 29.0837 13.1652 29.0837V27.5837C11.7385 27.5837 10.5819 26.4271 10.5819 25.0003H9.0819ZM2.21884 22.7636C3.34642 24.7167 5.84375 25.3858 7.79678 24.2582L7.04678 22.9592C5.81119 23.6726 4.23125 23.2492 3.51788 22.0136L2.21884 22.7636ZM1.38551 21.3203L2.21884 22.7636L3.51788 22.0136L2.68455 20.5703L1.38551 21.3203ZM2.88011 15.7423C0.927086 16.8699 0.257929 19.3672 1.38551 21.3203L2.68455 20.5703C1.97118 19.3347 2.39452 17.7547 3.63011 17.0414L2.88011 15.7423ZM1.38555 8.68031C0.257967 10.6333 0.927124 13.1307 2.88015 14.2582L3.63015 12.9592C2.39456 12.2458 1.97122 10.6659 2.68459 9.43031L1.38555 8.68031ZM2.21888 7.23693L1.38555 8.68031L2.68459 9.43031L3.51792 7.98693L2.21888 7.23693ZM7.79682 5.74233C5.84379 4.61474 3.34646 5.2839 2.21888 7.23693L3.51792 7.98693C4.23129 6.75134 5.81123 6.328 7.04682 7.04136L7.79682 5.74233ZM7.04682 7.04136C8.61801 7.94849 10.5819 6.81448 10.5819 5.00033H9.0819C9.0819 5.65988 8.36793 6.07206 7.79682 5.74233L7.04682 7.04136ZM3.63011 17.0414C5.2013 16.1342 5.2014 13.8664 3.63015 12.9592L2.88015 14.2582C3.45134 14.588 3.45136 15.4125 2.88011 15.7423L3.63011 17.0414ZM10.5819 25.0003C10.5819 23.1862 8.61803 22.052 7.04678 22.9592L7.79678 24.2582C8.36786 23.9285 9.0819 24.3407 9.0819 25.0003H10.5819ZM20.9507 22.9592C19.3794 22.0521 17.4152 23.1859 17.4152 25.0003H18.9152C18.9152 24.3407 19.6293 23.9284 20.2007 24.2582L20.9507 22.9592ZM24.3673 12.9592C22.796 13.8664 22.7961 16.1342 24.3673 17.0414L25.1173 15.7423C24.5461 15.4125 24.5461 14.588 25.1173 14.2582L24.3673 12.9592ZM17.4152 5.00033C17.4152 6.81473 19.3795 7.94847 20.9506 7.04136L20.2006 5.74233C19.6293 6.07218 18.9152 5.65984 18.9152 5.00033H17.4152ZM16.885 15.0002C16.885 16.5943 15.5928 17.8866 13.9987 17.8866V19.3866C16.4212 19.3866 18.385 17.4227 18.385 15.0002H16.885ZM13.9987 17.8866C12.4046 17.8866 11.1123 16.5943 11.1123 15.0002H9.6123C9.6123 17.4227 11.5761 19.3866 13.9987 19.3866V17.8866ZM11.1123 15.0002C11.1123 13.4061 12.4046 12.1139 13.9987 12.1139V10.6139C11.5761 10.6139 9.6123 12.5777 9.6123 15.0002H11.1123ZM13.9987 12.1139C15.5928 12.1139 16.885 13.4061 16.885 15.0002H18.385C18.385 12.5777 16.4212 10.6139 13.9987 10.6139V12.1139Z" fill="#131214"/>
</svg>
