<svg width="18" height="18" viewBox="0 0 18 18" fill="none" xmlns="http://www.w3.org/2000/svg">
<path d="M13.4444 17V12.8889C13.4444 11.7843 12.549 10.8889 11.4444 10.8889H6.55554C5.45097 10.8889 4.55554 11.7843 4.55554 12.8889V17M4.55554 1V3.44444C4.55554 4.54901 5.45097 5.44444 6.55554 5.44444H11.6667M16.1213 4.56577L13.4342 1.87868C12.8716 1.31607 12.1085 1 11.3129 1L3.99999 1.00002C2.34314 1.00003 1 2.34317 1 4.00002V14C1 15.6569 2.34315 17 4 17H14C15.6568 17 17 15.6569 17 14V6.68708C17 5.89144 16.6839 5.12837 16.1213 4.56577Z" stroke="#7257FF" stroke-width="1.5" stroke-linecap="round" stroke-linejoin="round"/>
</svg>
