<svg width="22" height="24" viewBox="0 0 22 24" fill="none" xmlns="http://www.w3.org/2000/svg">
<path d="M16.2605 5.11313L16.6355 5.76265L16.6355 5.76265L16.2605 5.11313ZM19.9032 6.0892L20.5528 5.7142L20.5528 5.7142L19.9032 6.0892ZM20.5699 7.2439L19.9204 7.6189L19.9204 7.6189L20.5699 7.2439ZM19.5938 10.8866L19.9688 11.5362L19.9688 11.5362L19.5938 10.8866ZM19.5939 13.1131L19.2189 13.7627L19.5939 13.1131ZM20.5699 16.7559L21.2194 17.1309L21.2194 17.1309L20.5699 16.7559ZM19.9033 17.9106L19.2537 17.5356L19.2537 17.5356L19.9033 17.9106ZM16.2605 18.8866L16.6355 18.2371L16.6355 18.2371L16.2605 18.8866ZM5.73742 18.8866L5.36242 18.2371L5.36242 18.2371L5.73742 18.8866ZM2.09469 17.9106L2.74421 17.5356L2.74421 17.5356L2.09469 17.9106ZM1.42802 16.7559L0.778504 17.1309L0.778504 17.1309L1.42802 16.7559ZM2.40409 13.1131L2.02909 12.4636L2.02909 12.4636L2.40409 13.1131ZM2.40412 10.8866L2.02912 11.5362L2.02912 11.5362L2.40412 10.8866ZM1.42805 7.2439L0.778535 6.8689L0.778535 6.8689L1.42805 7.2439ZM2.09472 6.0892L2.74424 6.4642L2.74424 6.4642L2.09472 6.0892ZM5.73746 5.11313L5.36246 5.76265L5.36246 5.76265L5.73746 5.11313ZM10.3322 0.583252C8.44522 0.583252 6.91552 2.11295 6.91552 3.99992H8.41552C8.41552 2.94137 9.27364 2.08325 10.3322 2.08325V0.583252ZM11.6655 0.583252H10.3322V2.08325H11.6655V0.583252ZM15.0822 3.99992C15.0822 2.11295 13.5525 0.583252 11.6655 0.583252V2.08325C12.7241 2.08325 13.5822 2.94137 13.5822 3.99992H15.0822ZM20.5528 5.7142C19.6093 4.08004 17.5197 3.52013 15.8855 4.46362L16.6355 5.76265C17.5522 5.23338 18.7244 5.54747 19.2537 6.4642L20.5528 5.7142ZM21.2194 6.8689L20.5528 5.7142L19.2537 6.4642L19.9204 7.6189L21.2194 6.8689ZM19.9688 11.5362C21.603 10.5927 22.1629 8.50307 21.2194 6.8689L19.9204 7.6189C20.4497 8.53563 20.1356 9.70784 19.2188 10.2371L19.9688 11.5362ZM21.2194 17.1309C22.1629 15.4967 21.603 13.4071 19.9689 12.4636L19.2189 13.7627C20.1356 14.2919 20.4497 15.4641 19.9204 16.3809L21.2194 17.1309ZM20.5528 18.2856L21.2194 17.1309L19.9204 16.3809L19.2537 17.5356L20.5528 18.2856ZM15.8855 19.5362C17.5197 20.4796 19.6093 19.9197 20.5528 18.2856L19.2537 17.5356C18.7245 18.4523 17.5523 18.7664 16.6355 18.2371L15.8855 19.5362ZM11.6655 23.4166C13.5525 23.4166 15.0822 21.8869 15.0822 19.9999H13.5822C13.5822 21.0585 12.7241 21.9166 11.6655 21.9166V23.4166ZM10.3322 23.4166H11.6655V21.9166H10.3322V23.4166ZM6.91552 19.9999C6.91552 21.8869 8.44522 23.4166 10.3322 23.4166V21.9166C9.27364 21.9166 8.41552 21.0585 8.41552 19.9999H6.91552ZM1.44517 18.2856C2.38866 19.9197 4.47826 20.4796 6.11242 19.5362L5.36242 18.2371C4.4457 18.7664 3.27348 18.4523 2.74421 17.5356L1.44517 18.2856ZM0.778504 17.1309L1.44517 18.2856L2.74421 17.5356L2.07754 16.3809L0.778504 17.1309ZM2.02909 12.4636C0.394925 13.4071 -0.164982 15.4967 0.778504 17.1309L2.07754 16.3809C1.54827 15.4641 1.86236 14.2919 2.77909 13.7627L2.02909 12.4636ZM0.778535 6.8689C-0.164951 8.50307 0.394956 10.5927 2.02912 11.5362L2.77912 10.2371C1.86239 9.70784 1.5483 8.53563 2.07757 7.6189L0.778535 6.8689ZM1.4452 5.7142L0.778535 6.8689L2.07757 7.6189L2.74424 6.4642L1.4452 5.7142ZM6.11246 4.46362C4.47829 3.52013 2.38869 4.08004 1.4452 5.7142L2.74424 6.4642C3.27351 5.54747 4.44573 5.23338 5.36246 5.76265L6.11246 4.46362ZM5.36246 5.76265C6.71941 6.54609 8.41552 5.56671 8.41552 3.99992H6.91552C6.91552 4.4121 6.46933 4.66966 6.11246 4.46362L5.36246 5.76265ZM2.77909 13.7627C4.13603 12.9792 4.13613 11.0206 2.77912 10.2371L2.02912 11.5362C2.38606 11.7422 2.38609 12.2575 2.02909 12.4636L2.77909 13.7627ZM8.41552 19.9999C8.41552 18.4332 6.71944 17.4536 5.36242 18.2371L6.11242 19.5362C6.46928 19.3301 6.91552 19.5877 6.91552 19.9999H8.41552ZM16.6355 18.2371C15.2785 17.4537 13.5822 18.4329 13.5822 19.9999H15.0822C15.0822 19.5877 15.5285 19.33 15.8855 19.5362L16.6355 18.2371ZM19.2188 10.2371C17.8618 11.0206 17.8619 12.9792 19.2189 13.7627L19.9689 12.4636C19.6119 12.2575 19.6119 11.7422 19.9688 11.5362L19.2188 10.2371ZM13.5822 3.99992C13.5822 5.56693 15.2786 6.54606 16.6355 5.76265L15.8855 4.46362C15.5284 4.66977 15.0822 4.41204 15.0822 3.99992H13.5822ZM13.158 11.9998C13.158 13.1923 12.1914 14.1589 10.9989 14.1589V15.6589C13.0198 15.6589 14.658 14.0207 14.658 11.9998H13.158ZM10.9989 14.1589C9.8065 14.1589 8.83984 13.1923 8.83984 11.9998H7.33984C7.33984 14.0207 8.97807 15.6589 10.9989 15.6589V14.1589ZM8.83984 11.9998C8.83984 10.8074 9.8065 9.84074 10.9989 9.84074V8.34074C8.97807 8.34074 7.33984 9.97897 7.33984 11.9998H8.83984ZM10.9989 9.84074C12.1914 9.84074 13.158 10.8074 13.158 11.9998H14.658C14.658 9.97897 13.0198 8.34074 10.9989 8.34074V9.84074Z" fill="#7257FF"/>
</svg>
