<svg width="18" height="16" viewBox="0 0 18 16" fill="none" xmlns="http://www.w3.org/2000/svg">
<path d="M16.9438 2.35711C17.1732 1.91254 16.6553 1.52132 16.204 1.73718C15.8078 1.92667 15.397 2.08579 14.9752 2.21282C14.5009 1.66747 13.8705 1.28095 13.1694 1.10551C12.4683 0.930081 11.7302 0.97421 11.055 1.23193C10.3797 1.48965 9.79994 1.94853 9.394 2.54651C8.98807 3.14448 8.77558 3.8527 8.78526 4.57538V4.83534C8.78526 5.12889 8.55114 5.37083 8.25779 5.36C7.05447 5.31556 5.87259 5.01264 4.79334 4.46942C3.84227 3.99071 2.9936 3.33682 2.29043 2.54497C2.01101 2.2303 1.50115 2.29393 1.38524 2.69848C0.841492 4.59638 0.178288 9.03474 4.75945 11.5963C5.13011 11.8035 5.17635 12.3366 4.80166 12.5365C3.77059 13.0866 2.64468 13.4339 1.48533 13.5609C1.14522 13.5982 1.0346 14.0733 1.34991 14.2061C8.17107 17.0796 15.8729 13.0912 15.8729 4.55175C15.8722 4.33239 15.8511 4.11357 15.8099 3.89811C16.269 3.44538 16.6509 2.92475 16.9438 2.35711Z" stroke="#7257FF" stroke-width="1.5" stroke-linecap="round" stroke-linejoin="round"/>
</svg>
