<svg width="14" height="12" viewBox="0 0 14 12" fill="none" xmlns="http://www.w3.org/2000/svg">
<path d="M12.2962 2.23811C12.4491 1.94173 12.1038 1.68092 11.803 1.82483C11.5389 1.95116 11.265 2.05723 10.9838 2.14192C10.6676 1.77836 10.2473 1.52067 9.77993 1.40372C9.31251 1.28676 8.82045 1.31618 8.3703 1.48799C7.92014 1.65981 7.53362 1.96573 7.26299 2.36438C6.99237 2.76303 6.85071 3.23518 6.85717 3.71696V3.89026C6.85717 4.08596 6.70109 4.24726 6.50552 4.24004C5.7033 4.21041 4.91538 4.00847 4.19588 3.64632C3.56184 3.32718 2.99606 2.89125 2.52728 2.36335C2.341 2.15358 2.00109 2.196 1.92382 2.46569C1.56132 3.73096 1.11918 6.68987 4.17329 8.39757C4.4204 8.53574 4.45122 8.8911 4.20143 9.02437C3.51405 9.39109 2.76345 9.62264 1.99054 9.70733C1.76381 9.73218 1.69006 10.0489 1.90027 10.1374C6.4477 12.0531 11.5823 9.39418 11.5823 3.70121C11.5818 3.55497 11.5677 3.40909 11.5403 3.26545C11.8463 2.96363 12.1009 2.61654 12.2962 2.23811Z" stroke="#7257FF" stroke-width="1.5" stroke-linecap="round" stroke-linejoin="round"/>
</svg>
