<svg width="24" height="22" viewBox="0 0 24 22" fill="none" xmlns="http://www.w3.org/2000/svg">
<path d="M19.3321 7.22221V10.5555M19.3321 10.5555V13.8889M19.3321 10.5555H22.6654M19.3321 10.5555H15.9987M14.2654 5.44444C14.2654 7.89904 12.2755 9.88889 9.82094 9.88889C7.36635 9.88889 5.3765 7.89904 5.3765 5.44444C5.3765 2.98985 7.36635 1 9.82094 1C12.2755 1 14.2654 2.98985 14.2654 5.44444ZM9.68206 14.75C13.9293 14.75 16.5731 16.61 17.8313 17.8021C18.4161 18.3561 18.4594 19.223 18.0645 19.9251C17.691 20.5891 16.9884 21 16.2266 21H3.44997C2.66675 21 1.94443 20.5776 1.56044 19.8949C1.17285 19.2059 1.19388 18.3578 1.74969 17.7956C2.92841 16.6033 5.44248 14.75 9.68206 14.75Z" stroke="#7257FF" stroke-width="1.5" stroke-linecap="round" stroke-linejoin="round"/>
</svg>
