<svg width="14" height="12" viewBox="0 0 14 12" fill="none" xmlns="http://www.w3.org/2000/svg">
<path d="M10.666 4.1111V5.77777M10.666 5.77777V7.44444M10.666 5.77777H12.3327M10.666 5.77777H8.99937M8.1327 3.22222C8.1327 4.44952 7.13777 5.44444 5.91047 5.44444C4.68317 5.44444 3.68825 4.44952 3.68825 3.22222C3.68825 1.99492 4.68317 1 5.91047 1C7.13777 1 8.1327 1.99492 8.1327 3.22222ZM5.84103 7.875C7.96466 7.875 9.28655 8.80502 9.91566 9.40105C10.208 9.67807 10.2297 10.1115 10.0322 10.4626C9.84548 10.7945 9.49419 11 9.11328 11H2.72499C2.33338 11 1.97221 10.7888 1.78022 10.4475C1.58643 10.1029 1.59694 9.67892 1.87484 9.39781C2.4642 8.80166 3.72124 7.875 5.84103 7.875Z" stroke="#5336E2" stroke-width="1.5" stroke-linecap="round" stroke-linejoin="round"/>
</svg>
