<svg width="10" height="8" viewBox="0 0 10 8" fill="none" xmlns="http://www.w3.org/2000/svg">
<path d="M5.5 1.54025C5.5 1.12099 5.01503 0.887906 4.68765 1.14981L3.20544 2.33558C3.07245 2.44197 2.90722 2.49993 2.73691 2.49993H2C1.44772 2.49993 1 2.94765 1 3.49993V4.49993C1 5.05222 1.44772 5.49993 2 5.49993H2.73691C2.90722 5.49993 3.07245 5.55789 3.20544 5.66428L4.68765 6.85005C5.01503 7.11196 5.5 6.87887 5.5 6.45962V1.54025Z" fill="white"/>
<path d="M7.76953 2.22991C8.23821 2.69873 8.5015 3.3345 8.5015 3.99741C8.5015 4.66032 8.23821 5.29609 7.76953 5.76491" fill="white"/>
<path d="M7.76953 2.22991C8.23821 2.69873 8.5015 3.3345 8.5015 3.99741C8.5015 4.66032 8.23821 5.29609 7.76953 5.76491M4.68765 6.85005L3.20544 5.66428C3.07245 5.55789 2.90722 5.49993 2.73691 5.49993H2C1.44772 5.49993 1 5.05222 1 4.49993V3.49993C1 2.94765 1.44772 2.49993 2 2.49993H2.73691C2.90722 2.49993 3.07245 2.44197 3.20544 2.33558L4.68765 1.14981C5.01503 0.887906 5.5 1.12099 5.5 1.54025V6.45962C5.5 6.87887 5.01503 7.11196 4.68765 6.85005Z" stroke="white" stroke-width="1.5" stroke-linecap="round" stroke-linejoin="round"/>
</svg>
