<svg width="48" height="48" viewBox="0 0 48 48" fill="none" xmlns="http://www.w3.org/2000/svg">
<rect width="48" height="48" rx="24" fill="#F4F6F7"/>
<g clip-path="url(#clip0_5602_3888)">
<path d="M35.7135 24.2763C35.7135 23.4605 35.6474 22.6404 35.5063 21.8379H24.1875V26.4589H30.6692C30.4003 27.9492 29.536 29.2676 28.2705 30.1054V33.1037H32.1375C34.4083 31.0137 35.7135 27.9272 35.7135 24.2763Z" fill="#4285F4"/>
<path d="M24.1875 36.0008C27.4239 36.0008 30.1533 34.9382 32.1419 33.1039L28.2749 30.1055C27.1991 30.8375 25.8101 31.252 24.1919 31.252C21.0613 31.252 18.4069 29.1399 17.4544 26.3003H13.464V29.3912C15.5011 33.4434 19.6503 36.0008 24.1875 36.0008Z" fill="#34A853"/>
<path d="M17.45 26.3005C16.9474 24.8101 16.9474 23.1963 17.45 21.7059V18.615H13.464C11.762 22.0058 11.762 26.0006 13.464 29.3914L17.45 26.3005Z" fill="#FBBC04"/>
<path d="M24.1875 16.7497C25.8983 16.7232 27.5518 17.367 28.7908 18.5487L32.2169 15.1226C30.0475 13.0855 27.1682 11.9655 24.1875 12.0008C19.6503 12.0008 15.5011 14.5582 13.464 18.6148L17.45 21.7058C18.398 18.8617 21.0569 16.7497 24.1875 16.7497Z" fill="#EA4335"/>
</g>
<defs>
<clipPath id="clip0_5602_3888">
<rect width="24" height="24" fill="white" transform="translate(12 12)"/>
</clipPath>
</defs>
</svg>
