<svg width="45" height="28" viewBox="0 0 45 28" fill="none" xmlns="http://www.w3.org/2000/svg">
<path d="M16.4165 2.9707H28.5838V24.8059H16.4165V2.9707Z" fill="#FF5F00"/>
<path d="M17.1888 13.8881C17.1888 9.45172 19.2746 5.51667 22.4805 2.97044C20.1244 1.11873 17.1503 0 13.9057 0C6.21876 0 0 6.21099 0 13.8881C0 21.5651 6.21876 27.7763 13.9055 27.7763C17.1501 27.7763 20.1243 26.6576 22.4805 24.8057C19.2746 22.2981 17.1888 18.3246 17.1888 13.8881Z" fill="#EB001B"/>
<path d="M44.9995 13.8881C44.9995 21.5651 38.7808 27.7763 31.094 27.7763C27.8494 27.7763 24.8752 26.6576 22.519 24.8057C25.7636 22.2596 27.8109 18.3246 27.8109 13.8881C27.8109 9.45172 25.7249 5.51667 22.519 2.97044C24.8751 1.11873 27.8494 0 31.094 0C38.7808 0 44.9997 6.24966 44.9997 13.8881H44.9995Z" fill="#F79E1B"/>
</svg>
