<svg width="48" height="48" viewBox="0 0 48 48" fill="none" xmlns="http://www.w3.org/2000/svg">
<rect width="48" height="48" rx="24" fill="#131214"/>
<path d="M24.782 17.5106C24.6541 17.5399 24.539 17.5572 24.4397 17.5669C24.4459 17.3964 24.464 17.1857 24.5061 16.9508C24.6182 16.3262 24.896 15.5507 25.5535 14.8932C26.2391 14.2076 26.9515 13.8594 27.4875 13.682C27.6199 13.6382 27.7414 13.6048 27.8489 13.5795C27.841 13.7537 27.8217 13.9625 27.7811 14.1925C27.6628 14.8638 27.368 15.6947 26.6691 16.3936C25.9461 17.1166 25.2638 17.4004 24.782 17.5106Z" fill="white" stroke="white"/>
<path d="M24.1245 19.3396C23.0188 19.332 22.3396 18.3773 20.4566 18.3773C18.7622 18.3773 17.0637 19.4705 16.3415 20.5283C15.6226 21.5811 15 22.7358 15 25.0792C15 27.4226 16.1283 31.4528 18.9028 34.1811C19.378 34.6483 20.007 34.9995 20.7245 35.0213C22.0151 35.0604 22.8076 34.0943 24.4377 34.0943C26.0679 34.0943 26.5585 35.0213 28.0302 35.0213C28.6994 35.0213 29.4626 34.7165 30.2038 33.9283C31.1547 32.917 32.3347 30.9909 32.9358 29.1434C32.9358 29.1434 29.9258 27.9809 29.9622 24.6301C29.9924 21.8528 32.3509 20.4868 32.3509 20.4868C32.3509 20.4868 30.9735 18.2905 28.0453 18.2905C26.0226 18.3057 25.1169 19.3464 24.1245 19.3396Z" fill="white"/>
</svg>
