<svg width="48" height="48" viewBox="0 0 48 48" fill="none" xmlns="http://www.w3.org/2000/svg">
<rect width="48" height="48" rx="24" fill="#1DA1F2"/>
<path d="M19.8258 33.0949C28.3164 33.0949 32.9604 26.0605 32.9604 19.9603C32.9604 19.7605 32.9604 19.5616 32.9469 19.3636C33.8503 18.7101 34.6302 17.901 35.25 16.9741C34.4075 17.3474 33.5137 17.5923 32.5986 17.7004C33.5623 17.1235 34.2835 16.2161 34.6281 15.1471C33.7219 15.6848 32.7306 16.0638 31.6968 16.2676C31.0008 15.5275 30.0803 15.0375 29.0777 14.8733C28.0751 14.7091 27.0463 14.8799 26.1506 15.3592C25.2549 15.8386 24.5421 16.5998 24.1226 17.5251C23.7031 18.4504 23.6002 19.4882 23.8299 20.4778C21.9946 20.3858 20.1991 19.9089 18.5601 19.078C16.921 18.247 15.4751 17.0807 14.316 15.6547C13.7257 16.671 13.5449 17.874 13.8104 19.0189C14.0759 20.1637 14.7678 21.1644 15.7452 21.817C15.0106 21.7952 14.292 21.5971 13.65 21.2392C13.65 21.2581 13.65 21.2779 13.65 21.2977C13.6503 22.3635 14.0192 23.3964 14.6943 24.2212C15.3693 25.046 16.3088 25.6119 17.3535 25.8229C16.6739 26.0083 15.9608 26.0354 15.2691 25.9021C15.5641 26.8194 16.1384 27.6215 16.9117 28.1963C17.6849 28.7711 18.6186 29.0898 19.5819 29.1079C17.9473 30.3926 15.928 31.09 13.8489 31.0879C13.4816 31.0872 13.1147 31.065 12.75 31.0213C14.8611 32.3761 17.3174 33.0947 19.8258 33.0913" fill="white"/>
</svg>
