<svg width="48" height="48" viewBox="0 0 48 48" fill="none" xmlns="http://www.w3.org/2000/svg">
<rect width="48" height="48" rx="24" fill="#0078FF"/>
<path fill-rule="evenodd" clip-rule="evenodd" d="M36 24.073C36 17.4058 30.6269 12 24 12C17.3731 12 12 17.4058 12 24.073C12 30.0984 16.3876 35.0933 22.1252 36V27.5636H19.0775V24.073H22.1252V21.4125C22.1252 18.387 23.9173 16.7147 26.6578 16.7147C27.9707 16.7147 29.3444 16.9507 29.3444 16.9507V19.9219H27.8306C26.3406 19.9219 25.8748 20.8523 25.8748 21.8081V24.0729H29.2026L28.671 27.5636H25.8747V35.9999C31.6123 35.0949 36 30.1001 36 24.073Z" fill="white"/>
</svg>
